<svg xmlns="http://www.w3.org/2000/svg" viewBox="0 0 500 500"><g id="freepik--background-complete--inject-82"><path d="M44,122.2l.29.48a3.3,3.3,0,0,0,1.36,1.26l.51.25-.48.29a3.24,3.24,0,0,0-1.26,1.36l-.25.51-.29-.49a3.31,3.31,0,0,0-1.37-1.25l-.5-.25.48-.29a3.33,3.33,0,0,0,1.26-1.37Z" style="fill:#e0e0e0"></path><path d="M100.23,112.73c-19.94,0-36.11-15.73-36.11-35.14a34.3,34.3,0,0,1,6.26-19.77,34.84,34.84,0,0,0-15.8,29.05c0,19.41,16.17,35.15,36.11,35.15a36.34,36.34,0,0,0,29.85-15.38A36.56,36.56,0,0,1,100.23,112.73Z" style="fill:#e0e0e0"></path><path d="M97.46,170.21l.76,1.23a8.58,8.58,0,0,0,3.59,3.21l1.32.64-1.26.74a8.47,8.47,0,0,0-3.3,3.49l-.66,1.29-.76-1.24a8.62,8.62,0,0,0-3.58-3.21l-1.33-.63,1.27-.75a8.57,8.57,0,0,0,3.3-3.48Z" style="fill:#ebebeb"></path><path d="M37.69,258.68l.76,1.23A8.6,8.6,0,0,0,42,263.13l1.32.63-1.26.74A8.59,8.59,0,0,0,38.8,268l-.66,1.29-.76-1.23a8.55,8.55,0,0,0-3.58-3.21l-1.33-.64,1.27-.74A8.53,8.53,0,0,0,37,260Z" style="fill:#ebebeb"></path><path d="M104.27,49.31l.49.79a5.51,5.51,0,0,0,2.31,2.07l.85.41-.81.48A5.49,5.49,0,0,0,105,55.31l-.42.83-.49-.79a5.57,5.57,0,0,0-2.31-2.07l-.86-.41.82-.48a5.56,5.56,0,0,0,2.13-2.25Z" style="fill:#f5f5f5"></path><path d="M36.68,170.45l.5.79a5.53,5.53,0,0,0,2.31,2.08l.85.41-.82.47a5.53,5.53,0,0,0-2.12,2.25l-.43.83-.49-.79a5.51,5.51,0,0,0-2.31-2.07l-.85-.41.82-.48a5.53,5.53,0,0,0,2.12-2.25Z" style="fill:#f5f5f5"></path><path d="M36.68,37.05l.5.79a5.51,5.51,0,0,0,2.31,2.07l.85.41-.82.48a5.53,5.53,0,0,0-2.12,2.25l-.43.83-.49-.79A5.51,5.51,0,0,0,34.17,41l-.85-.41.82-.48a5.53,5.53,0,0,0,2.12-2.25Z" style="fill:#ebebeb"></path><path d="M273.67,37.25c.53-3.82-4.86-7-8.91-7.29-1.93-.15-3.94.14-5.77-.5-4-1.38-5.55-6.5-9.41-8.13-2.9-1.22-6.23-.13-9,1.28S235,25.79,231.84,26c-2.72.18-5.68-.83-8.06.5-1.78,1-2.71,3-4.35,4.24a10.21,10.21,0,0,1-5.67,1.54,16,16,0,0,0-5.86,1c-1.81.83-3.3,2.74-2.93,4.7Z" style="fill:#f5f5f5"></path><path d="M94,216.24c.53-3.82-4.86-7-8.91-7.29-1.93-.16-3.94.14-5.77-.5-4-1.38-5.55-6.5-9.41-8.13-2.9-1.22-6.23-.14-9,1.27s-5.57,3.19-8.71,3.39c-2.72.18-5.68-.83-8.06.5-1.78,1-2.71,3-4.35,4.24a10.37,10.37,0,0,1-5.67,1.54,16,16,0,0,0-5.86,1c-1.81.83-3.3,2.74-2.93,4.69Z" style="fill:#f5f5f5"></path><path d="M469.76,172.86c.46-3.33-4.23-6.06-7.75-6.34-1.68-.14-3.43.12-5-.44-3.45-1.2-4.83-5.65-8.19-7.07-2.52-1.06-5.41-.12-7.85,1.11s-4.85,2.77-7.58,2.94c-2.36.16-4.94-.72-7,.43-1.55.87-2.36,2.65-3.78,3.7a9,9,0,0,1-4.94,1.34,13.81,13.81,0,0,0-5.09.83c-1.58.72-2.88,2.38-2.55,4.08Z" style="fill:#ebebeb"></path><path d="M455.92,66.17c.66-4.86-6.19-8.85-11.34-9.27-2.46-.2-5,.18-7.34-.63-5-1.76-7.06-8.27-12-10.35-3.68-1.55-7.91-.17-11.48,1.63s-7.09,4.05-11.07,4.3c-3.47.23-7.23-1.06-10.27.63-2.26,1.27-3.44,3.87-5.52,5.41s-4.7,1.82-7.22,2-5.15.17-7.45,1.22-4.21,3.49-3.73,6Z" style="fill:#f5f5f5"></path><path d="M460,204.82l.29.48a3.33,3.33,0,0,0,1.37,1.26l.5.25-.48.29a3.3,3.3,0,0,0-1.26,1.36l-.25.51-.29-.48a3.3,3.3,0,0,0-1.36-1.26L458,207l.48-.29a3.26,3.26,0,0,0,1.26-1.37Z" style="fill:#e0e0e0"></path><path d="M437.69,96l.29.49a3.31,3.31,0,0,0,1.37,1.25l.5.25-.48.29a3.33,3.33,0,0,0-1.26,1.37l-.25.5-.29-.48a3.3,3.3,0,0,0-1.36-1.26l-.51-.25.48-.29a3.3,3.3,0,0,0,1.26-1.36Z" style="fill:#e0e0e0"></path><path d="M349.63,32.9l.29.48a3.33,3.33,0,0,0,1.37,1.26l.5.25-.48.29a3.3,3.3,0,0,0-1.26,1.36l-.25.51-.29-.48a3.3,3.3,0,0,0-1.36-1.26l-.51-.25.48-.29a3.26,3.26,0,0,0,1.26-1.37Z" style="fill:#e0e0e0"></path><path d="M148.35,25.17l.58,1a6.76,6.76,0,0,0,2.76,2.54l1,.5-1,.59a6.51,6.51,0,0,0-2.54,2.76l-.51,1-.58-1A6.76,6.76,0,0,0,145.35,30l-1-.5,1-.59a6.57,6.57,0,0,0,2.54-2.76Z" style="fill:#e0e0e0"></path><path d="M463.33,35l.73,1.21a8.36,8.36,0,0,0,3.43,3.16l1.26.62-1.21.73a8.27,8.27,0,0,0-3.15,3.43l-.63,1.26L463,44.18A8.15,8.15,0,0,0,459.6,41l-1.26-.63,1.21-.73a8.24,8.24,0,0,0,3.16-3.43Z" style="fill:#e0e0e0"></path><path d="M462.19,108.59l.56.94a6.38,6.38,0,0,0,2.64,2.43l1,.48-.94.56a6.44,6.44,0,0,0-2.43,2.64l-.48,1-.56-.93a6.43,6.43,0,0,0-2.65-2.44l-1-.48.93-.56a6.38,6.38,0,0,0,2.43-2.64Z" style="fill:#e0e0e0"></path></g><g id="freepik--Floor--inject-82"><path d="M448.54,479.33c0,.14-88.9.26-198.53.26s-198.55-.12-198.55-.26,88.88-.26,198.55-.26S448.54,479.19,448.54,479.33Z" style="fill:#263238"></path></g><g id="freepik--Screen--inject-82"><rect x="141.05" y="49.2" width="207.23" height="429.93" rx="21.82" style="fill:#263238"></rect><path d="M326.46,479.13l.8-.05a18.4,18.4,0,0,0,2.37-.23,21.76,21.76,0,0,0,8.67-3.29,22.4,22.4,0,0,0,5.08-4.61,21.26,21.26,0,0,0,3.87-7.29c.17-.73.4-1.46.54-2.23s.28-1.55.31-2.35c.11-1.61.08-3.29.08-5,0-3.46,0-7.16,0-11.07,0-31.3-.05-76.58-.09-132.53s0-122.58-.06-196.56q0-13.87,0-28.08V71.52a24.18,24.18,0,0,0-1-7,22,22,0,0,0-8.42-11.29,22,22,0,0,0-6.54-3,22.53,22.53,0,0,0-3.56-.65c-1.21-.07-2.42-.13-3.65-.1H162.9a21.59,21.59,0,0,0-21.42,19.1c-.24,2.58-.11,5.24-.15,7.86v84.93c0,40.26,0,79.09,0,116.09s0,72.15,0,105q0,24.68,0,47.61,0,11.46,0,22.44c0,1.83,0,3.66,0,5.45l.06,1.34c0,.45.13.89.19,1.33a17.7,17.7,0,0,0,.56,2.6,21.64,21.64,0,0,0,13.79,14.48,22.42,22.42,0,0,0,2.43.68c.82.16,1.65.28,2.48.39,1.66.11,3.34.11,5,.1h19.44l35.6,0,57,0,36,.06,9.37,0c2.11,0,3.2,0,3.2,0l-3.2,0-9.37,0-36,.06-57,0-35.6,0H165.81c-1.66,0-3.33,0-5-.11-.85-.1-1.69-.23-2.53-.39a24,24,0,0,1-2.48-.69,22,22,0,0,1-14.05-14.73,18.54,18.54,0,0,1-.58-2.66c-.06-.45-.16-.89-.19-1.35l-.07-1.36c-.08-1.83,0-3.64,0-5.47q0-11,0-22.44,0-22.9,0-47.61c0-32.9,0-68,0-105s0-75.83,0-116.09V76.45c0-2.63-.1-5.25.15-7.92a22,22,0,0,1,7.22-14,22.24,22.24,0,0,1,14.76-5.65H324.83c1.22,0,2.46,0,3.7.1a23.69,23.69,0,0,1,3.65.67,22.17,22.17,0,0,1,15.33,14.64,24,24,0,0,1,1,7.18V85.81q0,14.2,0,28.08c0,74,0,140.6-.06,196.56s-.07,101.23-.09,132.53c0,3.91,0,7.61,0,11.07,0,1.74,0,3.41-.1,5,0,.82-.22,1.6-.32,2.38s-.37,1.51-.55,2.24A21.43,21.43,0,0,1,343.5,471a23.21,23.21,0,0,1-5.13,4.61,21.66,21.66,0,0,1-8.73,3.26,17.35,17.35,0,0,1-2.38.2Z" style="fill:#263238"></path><path d="M339,176.31c0,.15-42.64.28-95.23.28s-95.24-.13-95.24-.28,42.63-.28,95.24-.28S339,176.15,339,176.31Z" style="fill:#455a64"></path><path d="M339,124c0,.16-42.64.28-95.23.28s-95.24-.12-95.24-.28,42.63-.28,95.24-.28S339,123.84,339,124Z" style="fill:#455a64"></path><path d="M339,221.07c0,.15-42.64.28-95.23.28s-95.24-.13-95.24-.28,42.63-.28,95.24-.28S339,220.92,339,221.07Z" style="fill:#455a64"></path><path d="M339,266.27c0,.15-42.64.28-95.23.28s-95.24-.13-95.24-.28,42.63-.28,95.24-.28S339,266.12,339,266.27Z" style="fill:#455a64"></path><path d="M339,311.05c0,.16-42.64.28-95.23.28s-95.24-.12-95.24-.28,42.63-.28,95.24-.28S339,310.9,339,311.05Z" style="fill:#455a64"></path><path d="M325.93,348.53a.67.67,0,0,1-.49-.21.68.68,0,0,1,0-1l1.63-1.53-1.66-1.73a.69.69,0,0,1,1-.95l2.13,2.23a.71.71,0,0,1,.19.5.65.65,0,0,1-.22.47l-2.13,2A.69.69,0,0,1,325.93,348.53Z" style="fill:#455a64"></path><path d="M325.93,290.83a.67.67,0,0,1-.49-.21.68.68,0,0,1,0-1l1.63-1.53-1.66-1.74a.68.68,0,0,1,0-1,.69.69,0,0,1,1,0l2.13,2.23a.7.7,0,0,1,.19.49.66.66,0,0,1-.22.48l-2.13,2A.69.69,0,0,1,325.93,290.83Z" style="fill:#455a64"></path><path d="M327.68,247.76a.67.67,0,0,1-.49-.21.69.69,0,0,1,0-1l1.63-1.53-1.65-1.73a.69.69,0,0,1,1-.95l2.13,2.24a.71.71,0,0,1,.19.49.69.69,0,0,1-.22.47l-2.13,2A.69.69,0,0,1,327.68,247.76Z" style="fill:#455a64"></path><path d="M327.68,202.32a.67.67,0,0,1-.49-.21.69.69,0,0,1,0-1l1.63-1.53-1.65-1.74a.68.68,0,0,1,0-1,.69.69,0,0,1,1,0l2.13,2.23a.73.73,0,0,1,.19.49.72.72,0,0,1-.22.48l-2.13,2A.69.69,0,0,1,327.68,202.32Z" style="fill:#455a64"></path><path d="M240.81,443.79a4.44,4.44,0,0,0,.56-.08,2.77,2.77,0,0,0,1.39-.82,2.72,2.72,0,0,0,.6-1,4.69,4.69,0,0,0,.11-1.44c0-1.08,0-2.31,0-3.7,0-2.78,0-6.18-.05-10.12,0-1,0-2,0-3.06v-1.61a3.29,3.29,0,0,0-.24-1.54,2.62,2.62,0,0,0-2.65-1.49h-3.64L159.2,419a2.48,2.48,0,0,0-2.11,1.2,2.61,2.61,0,0,0-.35,1.21v19.22a3.26,3.26,0,0,0,.14,1.23,2.46,2.46,0,0,0,1.65,1.58,4.43,4.43,0,0,0,1.23.09h14l34.91.06,23.53.08,6.4.06,1.67,0,.56,0-.56,0-1.67,0-6.4,0-23.53.09-34.91.06h-14a4.76,4.76,0,0,1-1.38-.11,3,3,0,0,1-2-1.93,3.8,3.8,0,0,1-.16-1.4v-1.34c0-3.57,0-7.21,0-10.9v-7a3.07,3.07,0,0,1,.43-1.48,3,3,0,0,1,2.59-1.48l77.65.08h3.64a3,3,0,0,1,3,1.72,3.49,3.49,0,0,1,.26,1.69v1.61c0,1,0,2.07,0,3.06,0,3.94,0,7.34-.05,10.12,0,1.39,0,2.62,0,3.7a4.53,4.53,0,0,1-.14,1.49,3,3,0,0,1-.64,1.06,2.74,2.74,0,0,1-1.47.79A2.05,2.05,0,0,1,240.81,443.79Z" style="fill:#455a64"></path><path d="M187.51,431.44a2.69,2.69,0,0,1,2.82-2.72,2.62,2.62,0,0,1,2,.83l-.5.48a1.94,1.94,0,0,0-1.49-.63,2,2,0,1,0,0,4.09,2,2,0,0,0,1.49-.64l.5.48a2.84,2.84,0,0,1-4.84-1.89Z" style="fill:#455a64"></path><path d="M196.47,431.67v2.43h-.69v-.53a1.5,1.5,0,0,1-1.32.58c-.91,0-1.49-.49-1.49-1.19s.42-1.18,1.62-1.18h1.15v-.14c0-.62-.36-1-1.08-1a2,2,0,0,0-1.27.43l-.31-.55a2.72,2.72,0,0,1,1.67-.51C195.85,430,196.47,430.57,196.47,431.67Zm-.73,1.2v-.56h-1.12c-.72,0-.93.28-.93.62s.33.65.89.65A1.16,1.16,0,0,0,195.74,432.87Z" style="fill:#455a64"></path><path d="M201.65,431.78v2.32h-.73v-2.23c0-.79-.39-1.18-1.08-1.18a1.2,1.2,0,0,0-1.28,1.34v2.07h-.73v-4h.7v.61A1.71,1.71,0,0,1,200,430,1.56,1.56,0,0,1,201.65,431.78Z" style="fill:#455a64"></path><path d="M202.66,432.09a2,2,0,0,1,2.13-2,1.8,1.8,0,0,1,1.64.85l-.56.36a1.25,1.25,0,0,0-1.09-.58,1.42,1.42,0,0,0,0,2.84,1.23,1.23,0,0,0,1.09-.58l.56.35a1.81,1.81,0,0,1-1.64.87A2,2,0,0,1,202.66,432.09Z" style="fill:#455a64"></path><path d="M210.94,432.33h-3.27a1.36,1.36,0,0,0,1.46,1.18,1.48,1.48,0,0,0,1.16-.49l.41.47a2.2,2.2,0,0,1-3.76-1.4,2,2,0,0,1,2-2,1.94,1.94,0,0,1,2,2.07A1.8,1.8,0,0,1,210.94,432.33Zm-3.27-.52h2.59a1.3,1.3,0,0,0-2.59,0Z" style="fill:#455a64"></path><path d="M212,428.46h.73v5.64H212Z" style="fill:#455a64"></path><path d="M177.76,95.29l.56-1.25a4.76,4.76,0,0,0,2.86.95c1.35,0,1.92-.48,1.92-1.12,0-1.88-5.16-.65-5.16-3.87,0-1.4,1.12-2.59,3.5-2.59a5.56,5.56,0,0,1,2.89.76l-.51,1.26a4.83,4.83,0,0,0-2.39-.69c-1.34,0-1.89.53-1.89,1.18,0,1.85,5.15.65,5.15,3.83,0,1.39-1.13,2.58-3.51,2.58A5.59,5.59,0,0,1,177.76,95.29Z" style="fill:#455a64"></path><path d="M192.34,93.39h-5.19A2,2,0,0,0,189.29,95a2.34,2.34,0,0,0,1.8-.72l.83,1a3.71,3.71,0,0,1-6.32-2.32A3.3,3.3,0,0,1,189,89.51a3.24,3.24,0,0,1,3.35,3.43A3.64,3.64,0,0,1,192.34,93.39Zm-5.2-1h3.75A1.8,1.8,0,0,0,189,90.75,1.83,1.83,0,0,0,187.14,92.37Z" style="fill:#455a64"></path><path d="M197.84,95.85a2.42,2.42,0,0,1-1.49.45,2,2,0,0,1-2.28-2.24V90.88H193V89.64h1.09V88.13h1.55v1.51h1.77v1.24h-1.77V94c0,.64.32,1,.92,1a1.4,1.4,0,0,0,.86-.27Z" style="fill:#455a64"></path><path d="M202.94,95.85a2.44,2.44,0,0,1-1.49.45,2,2,0,0,1-2.28-2.24V90.88h-1.09V89.64h1.09V88.13h1.55v1.51h1.77v1.24h-1.77V94c0,.64.32,1,.91,1a1.41,1.41,0,0,0,.87-.27Z" style="fill:#455a64"></path><path d="M204,87.57a1,1,0,0,1,1-.93.92.92,0,0,1,1,.89,1,1,0,0,1-2,0Zm.21,2h1.55v6.62h-1.55Z" style="fill:#455a64"></path><path d="M214.32,92.42v3.79h-1.55v-3.6c0-1.17-.58-1.74-1.57-1.74a1.75,1.75,0,0,0-1.85,2v3.35H207.8V89.59h1.47v.85a2.92,2.92,0,0,1,2.29-.93A2.59,2.59,0,0,1,214.32,92.42Z" style="fill:#455a64"></path><path d="M222.93,89.59v5.62c0,2.4-1.25,3.49-3.57,3.49a5.29,5.29,0,0,1-3.23-.94l.7-1.17a3.94,3.94,0,0,0,2.44.8c1.46,0,2.11-.67,2.11-2V95a2.91,2.91,0,0,1-2.22.88,3.2,3.2,0,1,1,0-6.4,2.85,2.85,0,0,1,2.29,1v-.88ZM221.4,92.7a2,2,0,0,0-4,0,2,2,0,0,0,4,0Z" style="fill:#455a64"></path><path d="M224.21,95.55l.59-1.18a4.44,4.44,0,0,0,2.31.66c1,0,1.39-.27,1.39-.73,0-1.26-4.09-.07-4.09-2.72,0-1.25,1.13-2.07,2.91-2.07a5.25,5.25,0,0,1,2.48.57l-.59,1.18a3.67,3.67,0,0,0-1.9-.49c-.94,0-1.39.31-1.39.74,0,1.34,4.09.15,4.09,2.74,0,1.24-1.14,2-3,2A5.26,5.26,0,0,1,224.21,95.55Z" style="fill:#455a64"></path><path d="M241.58,96.21a.66.66,0,0,1-.4-.13.69.69,0,0,1-.28-.66l.38-2.41a.17.17,0,0,0-.05-.15l-1.72-1.72a.7.7,0,0,1-.17-.7.67.67,0,0,1,.55-.46l2.41-.39a.16.16,0,0,0,.12-.09l1.11-2.17a.71.71,0,0,1,1.22,0l1.11,2.17a.18.18,0,0,0,.13.09l2.4.39a.67.67,0,0,1,.55.46.7.7,0,0,1-.17.7l-1.72,1.72A.17.17,0,0,0,247,93l.38,2.41a.7.7,0,0,1-.27.66.72.72,0,0,1-.72.06L244.22,95a.22.22,0,0,0-.16,0l-2.17,1.11A.7.7,0,0,1,241.58,96.21Zm2.56-1.71a.67.67,0,0,1,.31.07l2.17,1.11a.17.17,0,0,0,.18,0,.15.15,0,0,0,.07-.16l-.38-2.41a.7.7,0,0,1,.19-.59l1.73-1.73a.17.17,0,0,0,0-.17.17.17,0,0,0-.14-.12l-2.41-.38a.68.68,0,0,1-.5-.37l-1.11-2.17h0a.17.17,0,0,0-.3,0l-1.11,2.17a.68.68,0,0,1-.5.37l-2.41.38a.19.19,0,0,0-.14.12.16.16,0,0,0,0,.17l1.72,1.73a.7.7,0,0,1,.19.59l-.38,2.41a.16.16,0,0,0,.07.16.17.17,0,0,0,.18,0l2.17-1.11A.67.67,0,0,1,244.14,94.5Z" style="fill:#455a64"></path><path d="M170.44,96.82a.59.59,0,0,1-.41-.16l-3.82-3.39a.62.62,0,0,1-.21-.46.6.6,0,0,1,.21-.45L170,89a.61.61,0,0,1,.86.05.6.6,0,0,1,0,.86l-3.31,2.94,3.31,2.94a.61.61,0,0,1,0,.86A.6.6,0,0,1,170.44,96.82Z" style="fill:#455a64"></path><path d="M331.14,373.54c0,.17-38.1.31-85.07.31s-85.08-.14-85.08-.31,38.08-.32,85.08-.32S331.14,373.36,331.14,373.54Z" style="fill:#455a64"></path><rect x="248.86" y="418.71" width="87.09" height="25.08" rx="2.74" style="fill:#373B6E"></rect><path d="M283.08,433.76l.33-.68a3.27,3.27,0,0,0,2.06.7c1.08,0,1.54-.4,1.54-.93,0-1.48-3.77-.55-3.77-2.8,0-.94.74-1.73,2.38-1.73a3.83,3.83,0,0,1,2,.53l-.3.7a3.27,3.27,0,0,0-1.71-.5c-1.06,0-1.51.44-1.51,1,0,1.48,3.77.55,3.77,2.78,0,.92-.76,1.72-2.41,1.72A3.79,3.79,0,0,1,283.08,433.76Z" style="fill:#fff"></path><path d="M292.8,431.68v2.77H292v-.61a1.76,1.76,0,0,1-1.55.66c-1.07,0-1.74-.55-1.74-1.35s.49-1.34,1.89-1.34H292v-.17c0-.7-.42-1.11-1.27-1.11a2.43,2.43,0,0,0-1.49.5l-.36-.62a3.14,3.14,0,0,1,1.95-.59C292.07,429.82,292.8,430.42,292.8,431.68Zm-.85,1.37v-.64h-1.32c-.85,0-1.09.32-1.09.71s.39.74,1,.74A1.38,1.38,0,0,0,292,433.05Z" style="fill:#fff"></path><path d="M298.48,429.86l-2.07,4.59h-.87l-2.07-4.59h.89l1.62,3.68,1.66-3.68Z" style="fill:#fff"></path><path d="M303.39,432.43h-3.82a1.57,1.57,0,0,0,1.71,1.34,1.79,1.79,0,0,0,1.36-.55l.47.54a2.42,2.42,0,0,1-1.86.74,2.34,2.34,0,0,1-2.54-2.35,2.28,2.28,0,0,1,2.37-2.33,2.24,2.24,0,0,1,2.33,2.36A2.29,2.29,0,0,1,303.39,432.43Zm-3.82-.6h3a1.53,1.53,0,0,0-3,0Z" style="fill:#fff"></path><path d="M167.64,200.86h83.25a1.25,1.25,0,0,0,0-2.5H167.64a1.25,1.25,0,0,0,0,2.5Z" style="fill:#455a64"></path><path d="M167.64,246.21h87.87a1.25,1.25,0,0,0,0-2.5H167.64a1.25,1.25,0,0,0,0,2.5Z" style="fill:#455a64"></path><path d="M167.64,291.57h87.87a1.25,1.25,0,0,0,0-2.5H167.64a1.25,1.25,0,0,0,0,2.5Z" style="fill:#455a64"></path><path d="M167.64,347h87.87a1.25,1.25,0,0,0,0-2.5H167.64a1.25,1.25,0,0,0,0,2.5Z" style="fill:#455a64"></path><rect x="306.11" y="144.21" width="27.73" height="14.44" rx="6.82" style="fill:#455a64"></rect><path d="M331.94,151.45a6,6,0,1,1-6-6A6,6,0,0,1,331.94,151.45Z" style="fill:#e0e0e0"></path><path d="M172.08,148.61h3.35c2.48,0,4.18,1.54,4.18,3.84s-1.7,3.83-4.18,3.83h-3.35Zm3.28,6.47a2.64,2.64,0,1,0,0-5.26H173.5v5.26Z" style="fill:#455a64"></path><path d="M185.89,152.85v3.43H184.6v-.71a2.06,2.06,0,0,1-1.84.79c-1.34,0-2.18-.73-2.18-1.75s.66-1.75,2.43-1.75h1.51v-.08c0-.8-.48-1.27-1.45-1.27a2.92,2.92,0,0,0-1.78.58l-.53-1a4.1,4.1,0,0,1,2.47-.72C184.92,150.37,185.89,151.17,185.89,152.85Zm-1.37,1.6v-.68h-1.41c-.93,0-1.18.35-1.18.78s.41.81,1.12.81A1.48,1.48,0,0,0,184.52,154.45Z" style="fill:#455a64"></path><path d="M191,150.37v1.3l-.31,0a1.6,1.6,0,0,0-1.7,1.81v2.83h-1.37v-5.85H189v.86A2.3,2.3,0,0,1,191,150.37Z" style="fill:#455a64"></path><path d="M194.59,153.77l-1,1v1.54H192.2v-8.13h1.37v4.91l2.83-2.63h1.65l-2.45,2.46,2.68,3.39h-1.67Z" style="fill:#455a64"></path><path d="M212,152.93v3.35h-1.37v-3.17c0-1-.49-1.55-1.32-1.55s-1.52.59-1.52,1.75v3H206.4v-3.17c0-1-.48-1.55-1.32-1.55s-1.52.59-1.52,1.75v3h-1.37v-5.85h1.31v.75a2.38,2.38,0,0,1,1.91-.81,2.17,2.17,0,0,1,2,1,2.77,2.77,0,0,1,2.2-1A2.25,2.25,0,0,1,212,152.93Z" style="fill:#455a64"></path><path d="M213.31,153.36a3.12,3.12,0,1,1,3.11,3A2.94,2.94,0,0,1,213.31,153.36Zm4.85,0a1.74,1.74,0,1,0-1.74,1.83A1.71,1.71,0,0,0,218.16,153.36Z" style="fill:#455a64"></path><path d="M226.59,148.15v8.13h-1.32v-.75a2.41,2.41,0,0,1-1.94.83,3,3,0,0,1,0-6,2.39,2.39,0,0,1,1.89.79v-3Zm-1.35,5.21a1.75,1.75,0,1,0-1.74,1.83A1.71,1.71,0,0,0,225.24,153.36Z" style="fill:#455a64"></path><path d="M233.86,153.8h-4.59a1.78,1.78,0,0,0,1.9,1.4,2.09,2.09,0,0,0,1.59-.64l.73.85a3.29,3.29,0,0,1-5.59-2,2.92,2.92,0,0,1,3-3,2.85,2.85,0,0,1,3,3C233.89,153.5,233.87,153.66,233.86,153.8Zm-4.6-.91h3.32a1.59,1.59,0,0,0-1.65-1.43A1.62,1.62,0,0,0,229.26,152.89Z" style="fill:#455a64"></path><path d="M326.57,154.13a3.48,3.48,0,0,1-.38-6.13,3.47,3.47,0,1,0,2.4,6.39A3.48,3.48,0,0,1,326.57,154.13Z" style="fill:#263238"></path><path d="M326.78,154.92a3.46,3.46,0,0,1-1.44-.31,3.5,3.5,0,0,1,.85-6.63l.13,0-.12.07a3.45,3.45,0,0,0-1.43,4.15,3.46,3.46,0,0,0,1.81,1.93h0a3.46,3.46,0,0,0,2,.25l.13,0-.11.07A3.51,3.51,0,0,1,326.78,154.92Zm-.72-6.87a3.45,3.45,0,1,0,2.41,6.38,3.47,3.47,0,0,1-1.91-.28h0a3.5,3.5,0,0,1-1.75-4.62A3.61,3.61,0,0,1,326.06,148.05Z" style="fill:#455a64"></path></g><g id="freepik--Plant--inject-82"><path d="M65.57,362.1a41.79,41.79,0,0,0-17.9-6.17c-2.92-.3-6.12-.21-8.47,1.56a1.76,1.76,0,0,0-.87,1.55,1.86,1.86,0,0,0,.83,1c7.28,5.56,18.3,6.26,26.41,2" style="fill:#373B6E"></path><path d="M65.11,361.59a87.48,87.48,0,0,1-11.56-10.17A29.34,29.34,0,0,1,46.3,338c-.31-1.53-.41-3.27.57-4.48,9.22,7.19,16.46,16.5,18.24,28.06" style="fill:#373B6E"></path><path d="M65.48,362a41.63,41.63,0,0,1,.21-15.18c1.16-5,3.85-9.7,8.09-12.53,1.59,3.72.9,8-.22,11.9a57.58,57.58,0,0,1-8,16.88" style="fill:#373B6E"></path><path d="M74.51,378.21c-5.48.67-10.26,3.56-14.36,7.27a27.2,27.2,0,0,0-8.21,14.1c5.38-.34,10-4.13,13.26-8.38s5.6-8.92,9.23-12.9" style="fill:#373B6E"></path><path d="M76.47,380.8a35.41,35.41,0,0,1,4.09-33.49c3.12,11.12,2,23.67-4.09,33.49" style="fill:#373B6E"></path><path d="M88.41,395a25.58,25.58,0,0,0-24.48,14.09,1.91,1.91,0,0,0-.17,1.92,1.83,1.83,0,0,0,1.63.47c4.82-.31,9.1-3.21,12.63-6.52s6.6-7.12,10.5-10" style="fill:#373B6E"></path><path d="M88,394.24a45.59,45.59,0,0,1-.46-25.47c.9-3.27,2.41-6.73,5.44-8.26a1.08,1.08,0,0,1,.83-.15,1.05,1.05,0,0,1,.52.61,15.34,15.34,0,0,1,1.29,7.31,45.24,45.24,0,0,1-1.15,7.39c-1,4.52-1.46,9.38-3.94,13.28A27.43,27.43,0,0,0,89,391.87c-.47,1-.47,1.34-.9,2.13" style="fill:#373B6E"></path><path d="M119.63,399c-2.35-8.9.14-19.7,5.75-27,.41-.54,1-1.11,1.64-1.05,1,.09,1.3,1.47,1.25,2.51A48.75,48.75,0,0,1,119.63,399" style="fill:#373B6E"></path><path d="M122.47,400.9c10.82,2.81,23.23.08,32.23-6.56a26.11,26.11,0,0,0-17.44-2.14c-5.83,1.33-11.16,3.95-14.79,8.7" style="fill:#373B6E"></path><path d="M124.88,395c6.06-9.88,17.67-16.33,29.25-16.91-1.34,4.7-5.21,8.36-9.57,10.57s-9.24,3.18-14,4.11c-1.87.36-4.43.76-5.64,2.23" style="fill:#373B6E"></path><path d="M120.23,366.2c1.64-5.62,3.29-11.29,3.74-17.13s-.38-11.93-3.41-16.95c-5.66,11-6.24,23.75-.5,34.67" style="fill:#373B6E"></path><path d="M139.28,356.57c6.62-12,20.12-21.64,33.79-23-5.27,13.13-19.65,23.27-33.79,23" style="fill:#373B6E"></path><path d="M135.12,358.92c9.87,1.51,18.28,7.81,27.5,11.63a12.4,12.4,0,0,0,6.22,1.2,4.88,4.88,0,0,0,3-8.62,13.53,13.53,0,0,0-4.52-2.74c-10-4.18-20.82-4.28-31.4-1.75" style="fill:#373B6E"></path><path d="M129.41,365.85c2.23.64,3,1.79,4.76,3.3A51.54,51.54,0,0,0,155,379.87c.8.19,1.84.27,2.24-.45s-.09-1.39-.54-1.95a28.82,28.82,0,0,0-12.59-8.55c-4.82-1.79-9-3.95-14.73-3.49" style="fill:#373B6E"></path><path d="M123,324a39.45,39.45,0,0,0,30.26,10.3,2.13,2.13,0,0,0,1.38-.49c.76-.83-.15-2.11-1-2.8-8.9-6.94-19.67-9.82-30.6-7" style="fill:#373B6E"></path><path d="M130.6,321.24A42.14,42.14,0,0,1,168.36,315c-4.75,4.68-11.35,7.21-18,7.9a57.11,57.11,0,0,1-19.77-1.67" style="fill:#373B6E"></path><path d="M127.57,302c-.88-8.88-.31-15.89-.93-24.81,0-.71-.2-1.57-.87-1.83-.93-.35-1.7.79-2,1.73a28.45,28.45,0,0,0,3.78,24.72" style="fill:#373B6E"></path><path d="M126.93,303c6-3.72,10.53-8.58,14.71-14.29,2.9-4,5.35-8.74,4.69-13.62-4.08-.08-8,2.17-10.61,5.27a29.66,29.66,0,0,0-5.41,10.88c-1.18,3.91-2,7.92-3.38,11.76" style="fill:#373B6E"></path><path d="M141.38,299a118.62,118.62,0,0,0,36.2-21.35c-4.32-1.74-9.27-.7-13.6,1.05-9.87,4-17.95,10.72-22.79,20.2" style="fill:#373B6E"></path><path d="M131,307.86c6.68.73,13.47,1.21,20.1.1s12.68-3.67,18.77-6.23a2.24,2.24,0,0,0,1.27-1,1.47,1.47,0,0,0-.45-1.61,3.87,3.87,0,0,0-1.6-.75c-6.62-1.85-13.77-1-20.28,1.21A94.35,94.35,0,0,0,131,307.86" style="fill:#373B6E"></path><path d="M92.83,324.34c-4.56-9.21-4.26-19.95-.33-29.43,2.78,4.22,3.12,9.6,2.61,14.63s-2,10.2-2.14,15.26" style="fill:#373B6E"></path><path d="M74.61,315.15a41,41,0,0,0-30.5,13c5.68.9,11.54-.57,16.7-3.09s9.77-6.07,14.32-9.58" style="fill:#373B6E"></path><path d="M62.37,311.06c-5.57-.46-10.93-1.15-16.28.5s-10.23,5.36-12.41,10.52a29.42,29.42,0,0,0,15.26-2.88,88.46,88.46,0,0,0,13.43-8.14" style="fill:#373B6E"></path><path d="M80.5,311.24c-5-3.28-10.15-6.62-16-8s-12.59-.36-16.66,4c4.72,2.77,10.45,3.1,15.93,3.09s12.18-.06,17.35,1.76" style="fill:#373B6E"></path><path d="M80.53,311.51c-8.57-8.41-11.81-23.52-8.37-35a53.33,53.33,0,0,1,8.37,35" style="fill:#373B6E"></path><path d="M104.08,287.68c1.62-3.76,2.75-7.7,4.2-11.52a33.06,33.06,0,0,1,6-10.62,15.76,15.76,0,0,1,10.61-5.5,42.75,42.75,0,0,1-20.59,27.7" style="fill:#373B6E"></path><path d="M99.82,292.64c-2.67-3.68-5.76-8.67-9.39-11.42s-8.34-4.41-12.77-3.35a29.76,29.76,0,0,0,22.16,14.77" style="fill:#373B6E"></path><path d="M100.67,288c-1.75-4.45-3.51-9-4.22-13.68s-.28-9.79,2.14-13.91c4.7,8.88,6.21,18.42,2.32,27.69" style="fill:#373B6E"></path><path d="M104.12,260.39c2.67-8.81,10.74-15.3,19.45-18.28a7.25,7.25,0,0,1,3.4-.51,3,3,0,0,1,2.52,2.1c.31,1.5-.92,2.84-2.09,3.84a66.24,66.24,0,0,1-23.28,12.85" style="fill:#373B6E"></path><path d="M104.22,253.18c.34-5.68.69-11.44,2.54-16.82s5.41-10.44,10.59-12.79c.88,5.74-1.65,11.44-4.7,16.38s-6.73,9.6-8.57,15.1" style="fill:#373B6E"></path><path d="M104.08,257.09c-2.2-6.42-2.43-14.58-6.27-20.17-2.69-3.91-7-6.57-9.31-10.71A16.28,16.28,0,0,0,89,238.37a35.16,35.16,0,0,0,7.12,10.18c2.84,3,5.28,5.33,7.92,8.54" style="fill:#373B6E"></path><path d="M104.12,446.18c-.17,0-.31-42.83-.33-95.66s.12-95.67.29-95.67.32,42.83.33,95.67S104.3,446.18,104.12,446.18Z" style="fill:#263238"></path><path d="M141.56,317.87a8.4,8.4,0,0,1-1.61.61L135.51,320c-3.73,1.28-8.87,3.12-14.44,5.4s-10.72,4.29-13.68,6.86a10.09,10.09,0,0,0-2.75,3.64c-.43,1-.5,1.62-.56,1.61a1.42,1.42,0,0,1,0-.45,6.92,6.92,0,0,1,.31-1.25,9.76,9.76,0,0,1,2.69-3.88,24,24,0,0,1,5.93-3.69c2.38-1.1,5-2.26,7.81-3.41,5.59-2.29,10.76-4.07,14.54-5.24,1.89-.59,3.43-1,4.5-1.31A9.52,9.52,0,0,1,141.56,317.87Z" style="fill:#263238"></path><path d="M153.83,287.74a3.71,3.71,0,0,1-.46.48L152,289.51l-5.13,4.66-17.08,15.21c-6.67,5.93-12.43,11.6-16.42,15.87-2,2.13-3.57,3.9-4.65,5.13l-1.24,1.42a3.57,3.57,0,0,1-.46.47,2.76,2.76,0,0,1,.36-.55c.26-.34.64-.86,1.16-1.49,1-1.28,2.54-3.1,4.51-5.28a216.44,216.44,0,0,1,16.33-16c6.69-5.92,12.78-11.24,17.2-15.08l5.26-4.51,1.45-1.2C153.63,287.86,153.81,287.72,153.83,287.74Z" style="fill:#263238"></path><path d="M122.59,315.41c-.17-.08,1.22-3.29,2.61-7.36s2.06-7.5,2.24-7.47-.24,3.55-1.65,7.67a49.71,49.71,0,0,1-2.08,5.15A7.8,7.8,0,0,1,122.59,315.41Z" style="fill:#263238"></path><path d="M104.16,341.34a8.81,8.81,0,0,1-1-1.19l-2.64-3.38c-2.21-2.86-5.26-6.8-8.69-11.12s-6.57-8.19-8.85-11l-2.69-3.33a7.66,7.66,0,0,1-.93-1.27,7.92,7.92,0,0,1,1.11,1.12c.69.74,1.66,1.83,2.84,3.2,2.37,2.73,5.58,6.56,9,10.89s6.43,8.31,8.55,11.24c1.07,1.46,1.91,2.66,2.48,3.49A7,7,0,0,1,104.16,341.34Z" style="fill:#263238"></path><path d="M96,330.8c-.1.11-2.29-2.49-3.44-6.44a18.15,18.15,0,0,1-.78-6.49l.27,0c-.12.49-.21.75-.26.75s0-.29,0-.8l.27,0a29.8,29.8,0,0,0,1.1,6.31C94.22,328,96.12,330.7,96,330.8Z" style="fill:#263238"></path><path d="M85.36,317.47a11.17,11.17,0,0,0-2.4-1.39,16,16,0,0,0-6.66-.53,41.62,41.62,0,0,0-6.72,1.08,19.33,19.33,0,0,1-2.76.66,9.67,9.67,0,0,1,2.65-1.08,30.68,30.68,0,0,1,6.78-1.28,14.6,14.6,0,0,1,6.87.74A4.31,4.31,0,0,1,85.36,317.47Z" style="fill:#263238"></path><path d="M82.85,314.24c0,.1-1.4-.56-3.68-1.34a36.91,36.91,0,0,0-18.53-1.41c-2.37.42-3.81.87-3.84.77a3.45,3.45,0,0,1,1-.42,22.79,22.79,0,0,1,2.78-.78,32.81,32.81,0,0,1,18.77,1.43A24.06,24.06,0,0,1,82,313.68,3.57,3.57,0,0,1,82.85,314.24Z" style="fill:#263238"></path><path d="M104.08,300.58c-.16,0-1.36-4.13-2.68-9.31s-2.25-9.43-2.08-9.47,1.36,4.13,2.68,9.31S104.25,300.54,104.08,300.58Z" style="fill:#263238"></path><path d="M104.25,300.58c-.18.06-1-2.72-3-5.57a23.93,23.93,0,0,0-4.38-4.52,3.94,3.94,0,0,1,1.69.87,13.42,13.42,0,0,1,3.2,3.29C103.88,297.62,104.4,300.57,104.25,300.58Z" style="fill:#263238"></path><path d="M104.12,423.35c-.06,0-.19-1-.67-2.85a41.31,41.31,0,0,0-2.86-7.42c-3-6-8.35-13.71-15.19-21.39-3.39-3.88-6.68-7.53-9.47-11a75.57,75.57,0,0,1-6.77-9.77,46.27,46.27,0,0,1-3.42-7.25c-.32-.89-.55-1.59-.68-2.07a3.6,3.6,0,0,1-.17-.74s.37,1,1.07,2.73a53.59,53.59,0,0,0,3.57,7.11,82.47,82.47,0,0,0,6.84,9.63c2.81,3.47,6.1,7.1,9.5,11C92.73,399,98.1,406.75,101,412.89a37.07,37.07,0,0,1,2.7,7.55,18.76,18.76,0,0,1,.38,2.15A2.89,2.89,0,0,1,104.12,423.35Z" style="fill:#263238"></path><path d="M138,385.14a14.36,14.36,0,0,1-1.77,1,38.38,38.38,0,0,0-4.6,3,51.5,51.5,0,0,0-6,5.51c-2.12,2.23-4.3,4.83-6.53,7.62-4.46,5.59-8.62,10.54-11.12,14.48-1.26,2-2.19,3.61-2.79,4.77a14.19,14.19,0,0,1-1,1.79,2.34,2.34,0,0,1,.17-.51c.13-.31.31-.79.59-1.38a44.46,44.46,0,0,1,2.64-4.9c2.42-4,6.56-9.06,11-14.64,2.23-2.79,4.44-5.39,6.6-7.63a48,48,0,0,1,6.19-5.46,32.3,32.3,0,0,1,4.74-2.91c.59-.29,1.07-.47,1.39-.61A1.7,1.7,0,0,1,138,385.14Z" style="fill:#263238"></path><path d="M138.61,397.54a26.17,26.17,0,0,1-3.75.54,50.11,50.11,0,0,0-8.88,1.75,26.65,26.65,0,0,0-8,4.18c-1.83,1.41-2.7,2.59-2.78,2.52a2.91,2.91,0,0,1,.55-.86,14,14,0,0,1,1.95-2,24.16,24.16,0,0,1,8.05-4.43,39.63,39.63,0,0,1,9-1.59A20.73,20.73,0,0,1,138.61,397.54Z" style="fill:#263238"></path><path d="M116.33,405.17c-.19-.11,1.49-2.69,2.8-6.16s1.52-6.57,1.74-6.54a5.86,5.86,0,0,1-.06,2,21.77,21.77,0,0,1-1.09,4.74,23.17,23.17,0,0,1-2.18,4.34A6.14,6.14,0,0,1,116.33,405.17Z" style="fill:#263238"></path><path d="M148.9,351.87a2.75,2.75,0,0,1-.6.32l-1.76.8c-.77.33-1.7.75-2.76,1.3s-2.29,1.11-3.58,1.89l-2,1.16c-.71.41-1.41.89-2.16,1.36-1.51.91-3,2-4.63,3.19a87.8,87.8,0,0,0-9.66,8.49,85.94,85.94,0,0,0-8.16,9.95c-1.09,1.65-2.17,3.2-3,4.73-.44.76-.9,1.48-1.28,2.2l-1.1,2.09c-.72,1.31-1.24,2.56-1.75,3.64s-.91,2-1.21,2.8-.55,1.32-.74,1.79a2.8,2.8,0,0,1-.3.61,2.6,2.6,0,0,1,.18-.65q.25-.72.63-1.83c.27-.8.63-1.77,1.12-2.86s1-2.37,1.68-3.7l1.07-2.11c.37-.74.82-1.46,1.26-2.24.85-1.56,1.91-3.12,3-4.8A84,84,0,0,1,121.27,370a82.31,82.31,0,0,1,9.76-8.52c1.64-1.15,3.17-2.27,4.7-3.17.75-.46,1.47-.93,2.18-1.33l2.08-1.14c1.31-.75,2.56-1.29,3.64-1.81a29.34,29.34,0,0,1,2.82-1.21l1.81-.7A2.85,2.85,0,0,1,148.9,351.87Z" style="fill:#263238"></path><path d="M122.13,369.8a4.46,4.46,0,0,1,1.48-2.19,9.23,9.23,0,0,1,5.93-2.27,16.11,16.11,0,0,1,6.24,1.22,9,9,0,0,1,2.36,1.14,13.78,13.78,0,0,1-2.51-.73,18.6,18.6,0,0,0-6.07-1,9.65,9.65,0,0,0-5.67,2A20.51,20.51,0,0,0,122.13,369.8Z" style="fill:#263238"></path><path d="M118.13,373.93c-.17-.09,1.34-2.31,1.69-5.48s-.57-5.66-.38-5.72a3.74,3.74,0,0,1,.69,1.6,11.09,11.09,0,0,1,.3,4.2,11.22,11.22,0,0,1-1.25,4C118.65,373.49,118.19,374,118.13,373.93Z" style="fill:#263238"></path><path d="M74.54,429.48c.92,16.37,5.86,33,13.44,49.85h33c7.23-16.66,11.83-33.28,12.64-49.85Z" style="fill:#455a64"></path><path d="M128.27,456c0,.17-10.86.31-24.26.31s-24.26-.14-24.26-.31,10.86-.31,24.26-.31S128.27,455.8,128.27,456Z" style="fill:#fafafa"></path><path d="M127.54,461.9c0,.17-10.19.31-22.75.31s-22.74-.14-22.74-.31,10.18-.31,22.74-.31S127.54,461.73,127.54,461.9Z" style="fill:#fafafa"></path></g><g id="freepik--Character--inject-82"><path d="M443.63,444.55l9.87,23.83L467,485.13a2.53,2.53,0,0,1-.63,3.76h0a2.79,2.79,0,0,1-2.48.26c-5.27-2-24.61-9.32-25.23-11.1-.72-2.06-12.14-24.49-12.14-24.49Z" style="fill:#373B6E"></path><g style="opacity:0.6000000000000001"><path d="M466.32,488.89l-28.41-12.43.44,1a4.06,4.06,0,0,0,1.94,2c2.34,1.15,8.85,4.17,23.47,9.72a2.83,2.83,0,0,0,2.56-.29Z" style="fill:#fff"></path></g><g style="opacity:0.6000000000000001"><path d="M439.57,466.85a1.6,1.6,0,0,1,1.26,1.74,1.56,1.56,0,0,1-1.78,1.2,1.71,1.71,0,0,1-1.32-1.86,1.63,1.63,0,0,1,2-1" style="fill:#fff"></path></g><path d="M456.16,480.8a7.72,7.72,0,0,1,1.34-2.69,8.37,8.37,0,0,1,2.59-1.64c0-.06-.4-.12-1,0a4.2,4.2,0,0,0-2,1.24,3.9,3.9,0,0,0-1,2.1C456,480.44,456.09,480.81,456.16,480.8Z" style="fill:#263238"></path><path d="M459.3,483.27c.16.06.61-1,1.72-1.88a23.88,23.88,0,0,1,2.26-1.24,3.09,3.09,0,0,0-2.63.81C459.39,481.94,459.15,483.26,459.3,483.27Z" style="fill:#263238"></path><path d="M451.12,478a25,25,0,0,1,2.45-3.07,27,27,0,0,1,3.27-2.26,6.08,6.08,0,0,0-3.68,1.85C451.44,476.15,451,478,451.12,478Z" style="fill:#263238"></path><path d="M447.49,471c.13.12,1.24-1,3-1.73s3.32-.9,3.3-1.07a5.51,5.51,0,0,0-3.55.56C448.35,469.62,447.36,471,447.49,471Z" style="fill:#263238"></path><path d="M444.41,464.11a12.54,12.54,0,0,1,3-1.88,14.16,14.16,0,0,1,3.6-.51c0-.06-.38-.25-1.08-.34a6.16,6.16,0,0,0-2.73.32,5.82,5.82,0,0,0-2.26,1.47C444.51,463.68,444.35,464.07,444.41,464.11Z" style="fill:#263238"></path><path d="M446.83,460.93a2.25,2.25,0,0,0-.36-.91,7,7,0,0,0-1.77-2,3.18,3.18,0,0,0-1.81-.82,1.07,1.07,0,0,0-1,.66,1.7,1.7,0,0,0,.08,1.22,4,4,0,0,0,4.51,1.93,4.28,4.28,0,0,0,3.13-3.68,1.47,1.47,0,0,0-.44-1.17,1.11,1.11,0,0,0-1.26-.09,3.67,3.67,0,0,0-1.26,1.45,7.35,7.35,0,0,0-.86,2.49,2,2,0,0,0,0,1,11.11,11.11,0,0,1,1.23-3.26,3.37,3.37,0,0,1,1.13-1.24.58.58,0,0,1,.69.05,1,1,0,0,1,.24.78,3.82,3.82,0,0,1-2.75,3.16,3.44,3.44,0,0,1-3.85-1.58,1.24,1.24,0,0,1-.1-.85.59.59,0,0,1,.57-.38,3,3,0,0,1,1.54.67A10.23,10.23,0,0,1,446.83,460.93Z" style="fill:#263238"></path><path d="M412.73,453l-5.31,18.24S425,482.55,424.36,486l-37.31-8.6,7.06-28.74Z" style="fill:#373B6E"></path><g style="opacity:0.6000000000000001"><path d="M396.27,467a1.54,1.54,0,0,0-1.47,1.43,1.46,1.46,0,0,0,1.45,1.4,1.62,1.62,0,0,0,1.56-1.51,1.55,1.55,0,0,0-1.69-1.3" style="fill:#fff"></path></g><g style="opacity:0.6000000000000001"><path d="M387.05,477.41l.71-2.9,35.58,9.35s1.49,1.07,1,2.15Z" style="fill:#fff"></path></g><path d="M408.07,471.21c-.05.17-1,0-2,.39s-1.7,1-1.85.87.37-1.05,1.64-1.46S408.15,471.06,408.07,471.21Z" style="fill:#263238"></path><path d="M411.59,473.66c0,.18-.86.29-1.67.89s-1.18,1.33-1.36,1.28,0-1.06,1-1.78S411.63,473.49,411.59,473.66Z" style="fill:#263238"></path><path d="M412.69,478.66c-.18,0-.21-.94.5-1.78s1.65-1,1.69-.87-.61.55-1.18,1.26S412.87,478.68,412.69,478.66Z" style="fill:#263238"></path><path d="M408.8,466.92c-.12.14-.9-.29-1.94-.46s-1.93,0-2-.22.87-.61,2.1-.39S408.92,466.81,408.8,466.92Z" style="fill:#263238"></path><g style="opacity:0.30000000000000004"><polygon points="411.67 456.62 410.73 459.87 392.43 455.49 393.35 451.7 411.67 456.62"></polygon></g><path d="M409.8,463.22a3.57,3.57,0,0,1-1.87-.44,8.47,8.47,0,0,1-1.81-1,9.6,9.6,0,0,1-.94-.79,2.37,2.37,0,0,1-.45-.55.75.75,0,0,1,.15-.95,1.07,1.07,0,0,1,.89-.22,2.54,2.54,0,0,1,.68.26,6.62,6.62,0,0,1,1.07.65,6.69,6.69,0,0,1,1.45,1.48c.67,1,.8,1.68.73,1.7s-.38-.6-1.1-1.44a7.75,7.75,0,0,0-1.44-1.28,5.91,5.91,0,0,0-1-.56c-.38-.2-.71-.28-.85-.13s-.07.08,0,.21a1.82,1.82,0,0,0,.33.4,10.12,10.12,0,0,0,.86.77,10.68,10.68,0,0,0,1.64,1.08A15.86,15.86,0,0,1,409.8,463.22Z" style="fill:#263238"></path><path d="M409.5,463.42a2.8,2.8,0,0,1-.06-1.84,5.75,5.75,0,0,1,.75-1.9,6,6,0,0,1,.74-1,1.65,1.65,0,0,1,1.42-.63.89.89,0,0,1,.66.68,2.85,2.85,0,0,1,0,.7,3.92,3.92,0,0,1-.31,1.21,4.15,4.15,0,0,1-1.26,1.66,2.54,2.54,0,0,1-1.77.73c0-.1.68-.29,1.46-1.05a4.34,4.34,0,0,0,1-1.55,3.51,3.51,0,0,0,.23-1c0-.39,0-.73-.19-.73a1.14,1.14,0,0,0-.81.44,6.29,6.29,0,0,0-1.51,2.56C409.57,462.72,409.6,463.42,409.5,463.42Z" style="fill:#263238"></path><path d="M428.16,253.21s11.91,21.73,11.71,45.29-23.72,168.91-23.72,168.91L387.9,459.7c-.7,4.68,10.76-47.66,15.07-72.9,4.24-24.85-8.87-115.58-8.87-115.58L426,253.13" style="fill:#455a64"></path><path d="M362.38,268.53s-4.05,25.16,3.1,42.39,63.74,159.72,63.74,159.72l25.83-11.4-55-189.2Z" style="fill:#455a64"></path><path d="M438.17,404.12c-.16,0-7.21-24.22-15.73-54.2s-15.31-54.32-15.15-54.37,7.21,24.22,15.74,54.2S438.33,404.07,438.17,404.12Z" style="fill:#263238"></path><path d="M429.22,470.64c-.16.06-11.48-28-25.28-62.68s-24.87-62.83-24.71-62.89,11.47,28,25.28,62.69S429.37,470.59,429.22,470.64Z" style="fill:#263238"></path><path d="M417.9,120.13a3,3,0,0,0-1.08-1.72c-1.28-1-2.95-1.08-4.54-1.13a19,19,0,0,1-1.86-6,3.8,3.8,0,0,0,2.14-.61,1.42,1.42,0,0,0,.35-.11c1.53-.7,1.68-3,.72-4.35a8.77,8.77,0,0,0-4.18-2.69c1.15.07,2.13.84,3.24,1.18s2.64,0,2.77-1.18a2.5,2.5,0,0,0-.17-1c-.21-.67-.43-1.35-.64-2a2.28,2.28,0,0,0-.9-1.41,5,5,0,0,0-1.17-.28c-1.29-.35-1.95-1.91-3.24-2.27-.94-.27-1.91.2-2.87.42s-2.22,0-2.52-.89a9.21,9.21,0,0,0,3.28-2.77,3.15,3.15,0,0,0-.31-4,4.62,4.62,0,0,0-3.24-.67c-1.26.06-2.82.35-3.15,1.56a3.27,3.27,0,0,0-4,2.57l-3.24-.33c.91-1,2.19-1.57,3-2.64s.64-3-.66-3.29a8.57,8.57,0,0,1-1.44-.13c-.33-.13-.6-.42-.95-.43a1.24,1.24,0,0,0-.7.27l-6.84,4.46c.62-1.43,1.23-2.86,1.85-4.3s1-3.14-.17-4-2.82.35-3.06,1.72a2.23,2.23,0,0,0-2.71,2.05,2.32,2.32,0,0,0-2.63.71,2.34,2.34,0,0,0,0,2.73,6.36,6.36,0,0,0-3.25,1,2,2,0,0,0-3.17-1.35,3.43,3.43,0,0,0-.51-1.95,1.18,1.18,0,0,0-1.76-.2,2.29,2.29,0,0,0-3.71-2.24l-1.13-1.36a3,3,0,0,0-2.91,1.5c-.47,1.06.32,2.58,1.48,2.48-.81,0-.63,1.28-.16,1.94l2,2.75a2.54,2.54,0,0,0-3.14-.28,2,2,0,0,0-2.83,0,1.59,1.59,0,0,0-2.86.48c-.2-.53-.93-.57-1.49-.5a3.63,3.63,0,0,0-2.26.77c-.58.57-.58,1.76.19,2-.7-.39-1.59.38-1.6,1.17a2.84,2.84,0,0,0,1.14,2,6.66,6.66,0,0,1,1.63,1.72,3.33,3.33,0,0,0-2.29-.48,8.68,8.68,0,0,0-4.14.82c-.24-.56-1-.58-1.62-.46a9.73,9.73,0,0,0-4.94,2.68c-.63.64-1.19,1.6-.76,2.39a2.38,2.38,0,0,0,.91.81l4.39,2.72a12,12,0,0,0-6,4.25c-.88.51-2,.57-2.78,1.2s-.74,2.31.28,2.31a1.84,1.84,0,0,0-.54,2.16,1.76,1.76,0,0,0,.68.75,2.79,2.79,0,0,0,.48.55,3.72,3.72,0,0,0,1.18.62,2.32,2.32,0,0,0,2,.9,9.28,9.28,0,0,0-2.09,2.47,3.91,3.91,0,0,0,0,4,1.33,1.33,0,0,0,.16.17,1.86,1.86,0,0,0,.84,1.22,1.59,1.59,0,0,0-.16,1.07,4.29,4.29,0,0,0-1,7.52c1,.71,2.88.58,3-.66a3.31,3.31,0,0,0,2.53,1.85,3.24,3.24,0,0,0,1.69,4.45,3.44,3.44,0,0,0,1.09,5.63,2.64,2.64,0,1,0,5,1.74,5.73,5.73,0,0,0,2,2.47,1.94,1.94,0,0,0,2.73-.72,3.63,3.63,0,0,0,5.33,1.73,2.34,2.34,0,0,0,4.66.41l6.05-.06a21.36,21.36,0,0,0,4-.29,10.83,10.83,0,0,0,4.61-2.13,3.69,3.69,0,0,1,1.4-.85,3.76,3.76,0,0,1,1.85.29,9.79,9.79,0,0,0,9.3-2.2,4.83,4.83,0,0,1,1.23-1,4.28,4.28,0,0,1,1.78-.25,17.64,17.64,0,0,0,4.4-.63,4.67,4.67,0,0,0,3.1-2c.58-1.13-.1-2.89-1.37-2.87a2.76,2.76,0,0,1,.67-2.3,1.66,1.66,0,0,1,2.24-.09,1.19,1.19,0,0,1-.55,1.93c1.37,1,3.5-.38,3.53-2a3.27,3.27,0,0,0-3.28-3,7.56,7.56,0,0,0,.1-3.66,2.69,2.69,0,0,0,3.66.41,4.66,4.66,0,0,0,3,2.16,2.78,2.78,0,0,0,3.07-1.67,2,2,0,0,0-1.9-2.58,2.39,2.39,0,0,0-2.12-3.46,3.74,3.74,0,0,0-2.27-4,2,2,0,0,0,2.78-1.07c.77,1.21,2.65.91,3.89.19C417.25,122.4,418.18,121.59,417.9,120.13Z" style="fill:#263238"></path><path d="M417.9,120.13a2.33,2.33,0,0,1,.07.5,2.15,2.15,0,0,1-.46,1.39,4.76,4.76,0,0,1-2,1.38,4.11,4.11,0,0,1-1.57.27,2,2,0,0,1-1.59-.84l.13,0a2,2,0,0,1-2.9,1.13l.08-.16a3.82,3.82,0,0,1,2.34,4l-.11-.12a2.32,2.32,0,0,1,2.08,1.11,2.36,2.36,0,0,1,.15,2.51l-.11-.18a2,2,0,0,1,2,1.53,2.21,2.21,0,0,1-1,2.51,3.21,3.21,0,0,1-2.91.27,5.16,5.16,0,0,1-2.37-2l.21,0a2.84,2.84,0,0,1-3.87-.43l.26-.13a7.68,7.68,0,0,1-.09,3.74l-.15-.2a3.67,3.67,0,0,1,2.26.84,3.09,3.09,0,0,1,1.18,2.17,2.57,2.57,0,0,1-1.19,2.25,2.32,2.32,0,0,1-2.6.14l-.38-.27.46-.05a1,1,0,0,0,.67-1.14,1,1,0,0,0-1.14-.83,1.61,1.61,0,0,0-1.38.84,2.8,2.8,0,0,0-.31,1.74l-.19-.16a1.56,1.56,0,0,1,1.21.56,2.35,2.35,0,0,1,.54,1.2,2.29,2.29,0,0,1-.17,1.31,3.18,3.18,0,0,1-.81,1,6.24,6.24,0,0,1-2.33,1.13,18,18,0,0,1-2.55.53c-1.71.36-3.68-.34-4.8,1.25a10.15,10.15,0,0,1-7.72,2.68,14.77,14.77,0,0,1-2.78-.61,1.66,1.66,0,0,0-1.24.14,9.84,9.84,0,0,0-1.13.83,11.06,11.06,0,0,1-2.58,1.44,15.57,15.57,0,0,1-5.91.86l-6.07.06.23-.2a2.57,2.57,0,0,1-5.12-.45l.37.2a3.87,3.87,0,0,1-5.69-1.84h.45a1.76,1.76,0,0,1-1.29,1.08,2.55,2.55,0,0,1-1.71-.2,5.63,5.63,0,0,1-2.14-2.6l.44,0a2.88,2.88,0,1,1-5.45-1.89l.16.32a3.46,3.46,0,0,1-2.2-2.62,3.5,3.5,0,0,1,1-3.44l.08.43a3.49,3.49,0,0,1-1.83-4.81l.19.37a3.6,3.6,0,0,1-2.73-2l.48-.09a1.32,1.32,0,0,1-.39.84,1.75,1.75,0,0,1-.8.41,2.77,2.77,0,0,1-1.68-.14,4.27,4.27,0,0,1-2.17-2.51,4.37,4.37,0,0,1,.18-3.38,4.62,4.62,0,0,1,2.5-2.34l-.16.29a1.84,1.84,0,0,1,.18-1.23l.1.33a2.16,2.16,0,0,1-1-1.38l.06.11a3.77,3.77,0,0,1-.49-3.82,8.28,8.28,0,0,1,2.43-3.21l.2.45a2.55,2.55,0,0,1-2.19-1l.13.09a3.16,3.16,0,0,1-1.8-1.26l.07.07a1.94,1.94,0,0,1-.95-1.58,2.12,2.12,0,0,1,.79-1.76l.16.47a1,1,0,0,1-.82-.42,1.47,1.47,0,0,1-.26-.82,1.88,1.88,0,0,1,.64-1.54c.9-.69,2-.73,2.81-1.21l-.08.07A12.23,12.23,0,0,1,346,107.8l-.06.47L344,107l-1.53-.94a14,14,0,0,1-1.53-1,1.59,1.59,0,0,1-.49-.93,2,2,0,0,1,.16-1,4.38,4.38,0,0,1,1.14-1.49,10,10,0,0,1,3.07-1.94,10.27,10.27,0,0,1,1.74-.52,2.63,2.63,0,0,1,1,0,1.14,1.14,0,0,1,.88.64l-.37-.12a7.28,7.28,0,0,1,3.33-.82c.56,0,1.1-.06,1.68-.05a2.88,2.88,0,0,1,1.71.55l-.39.32c-.49-1-1.69-1.49-2.4-2.58a2,2,0,0,1-.23-1.93,1.66,1.66,0,0,1,.73-.73,1.12,1.12,0,0,1,1.08,0l-.21.46a1.13,1.13,0,0,1-.69-.74,1.75,1.75,0,0,1,.46-1.77,2.5,2.5,0,0,1,.78-.47,6.13,6.13,0,0,1,1.66-.34,3,3,0,0,1,.89,0,1.07,1.07,0,0,1,.79.64l-.49.06a1.84,1.84,0,0,1,3.34-.57l-.43-.05a2.21,2.21,0,0,1,3.22,0l-.34,0A2.79,2.79,0,0,1,366,92l-.38.33-1.68-2.34a3.3,3.3,0,0,1-.7-1.34,1.66,1.66,0,0,1,0-.83.81.81,0,0,1,.27-.43.76.76,0,0,1,.49-.15l0,.5a1.71,1.71,0,0,1-1.62-1,2.11,2.11,0,0,1-.08-1.88,3.28,3.28,0,0,1,3.12-1.6h.11l.07.09,1.13,1.36-.35,0a2.54,2.54,0,0,1,4.11,2.49l-.43-.21a1.18,1.18,0,0,1,1.17-.38,1.61,1.61,0,0,1,1,.61,3.74,3.74,0,0,1,.53,2.06l-.41-.16a2.2,2.2,0,0,1,3.58,1.53l-.37-.21a6.66,6.66,0,0,1,3.38-1l-.19.38a2.49,2.49,0,0,1,2.93-3.8l-.32.22a2.44,2.44,0,0,1,3-2.27l-.29.18a2.72,2.72,0,0,1,.92-1.55,2.34,2.34,0,0,1,1.69-.61A1.79,1.79,0,0,1,388.1,83a3.08,3.08,0,0,1,.14,1.74,14.33,14.33,0,0,1-1.12,3.09c-.43,1-.85,2-1.27,2.93l-.32-.27,4.22-2.76,2.07-1.34a5.15,5.15,0,0,1,1.12-.64.94.94,0,0,1,.74.12c.19.1.35.22.5.29a3.24,3.24,0,0,0,1.12.09,1.56,1.56,0,0,1,1.19.58,2.63,2.63,0,0,1,.25,2.47,4.68,4.68,0,0,1-1.57,1.83,14,14,0,0,0-1.75,1.44l-.13-.34,3.24.33-.22.17A3.48,3.48,0,0,1,400.58,90l-.24.14A2.22,2.22,0,0,1,402,88.67a7.89,7.89,0,0,1,2.09-.27,6,6,0,0,1,2.06.23A2.53,2.53,0,0,1,407.69,90a3.75,3.75,0,0,1-.67,3.81,10.93,10.93,0,0,1-3,2.31l.08-.2a1.33,1.33,0,0,0,1.13.83,3.33,3.33,0,0,0,1.53-.13,11.26,11.26,0,0,1,1.57-.39,2.41,2.41,0,0,1,1.6.31c.94.57,1.49,1.5,2.34,1.9.4.23.9.16,1.41.36a1.89,1.89,0,0,1,1,1.18l.85,2.67a1.65,1.65,0,0,1-.11,1.42,1.86,1.86,0,0,1-1.17.76,3,3,0,0,1-1.34,0,6.43,6.43,0,0,1-1.21-.45,6.34,6.34,0,0,0-2.24-.79l.06-.24a14.74,14.74,0,0,1,2.65,1.27,5,5,0,0,1,1.87,2,3.65,3.65,0,0,1,.18,2.49,2.28,2.28,0,0,1-1.61,1.61l0,0a3.82,3.82,0,0,1-2.2.62l.1-.1a19.32,19.32,0,0,0,1.83,6l-.06,0a11.23,11.23,0,0,1,3,.37,4.18,4.18,0,0,1,1.83,1.07,2.82,2.82,0,0,1,.65,1.07,1.91,1.91,0,0,1,.1.4,3.16,3.16,0,0,0-.79-1.42,4.27,4.27,0,0,0-1.82-1,11.43,11.43,0,0,0-3-.33h0l0,0a19,19,0,0,1-1.89-6l0-.1h.11a3.72,3.72,0,0,0,2.09-.6h0a2,2,0,0,0,1.46-1.48,3.4,3.4,0,0,0-.18-2.34,4.73,4.73,0,0,0-1.79-1.88,15.37,15.37,0,0,0-2.61-1.24l-.75-.29.8.05a6.76,6.76,0,0,1,2.34.79,5,5,0,0,0,1.15.43,2.8,2.8,0,0,0,1.22,0,1.6,1.6,0,0,0,1-.64,1.37,1.37,0,0,0,.07-1.19l-.85-2.64a1.6,1.6,0,0,0-.8-1,11.12,11.12,0,0,1-1.42-.37c-1-.47-1.52-1.41-2.37-1.9s-1.91-.18-2.92.12a3.65,3.65,0,0,1-1.68.14,1.68,1.68,0,0,1-1.4-1l0-.13.12-.07a10.6,10.6,0,0,0,2.87-2.24,3.41,3.41,0,0,0,.62-3.44A2.19,2.19,0,0,0,406,89a5.59,5.59,0,0,0-1.93-.2,7.75,7.75,0,0,0-2,.25,1.86,1.86,0,0,0-1.38,1.18l-.06.19-.19-.05a3.07,3.07,0,0,0-3.76,2.4l0,.19h-.19l-3.24-.33-.41,0,.28-.3a16.44,16.44,0,0,1,1.79-1.49,4.13,4.13,0,0,0,1.44-1.65,2.21,2.21,0,0,0-.19-2.05,1.11,1.11,0,0,0-.88-.42,3.66,3.66,0,0,1-1.27-.13c-.42-.21-.69-.48-1-.38a5,5,0,0,0-1,.58L390,88.07l-4.22,2.76-.62.4.3-.67,1.25-2.94a14.08,14.08,0,0,0,1.09-3,2.63,2.63,0,0,0-.11-1.48,1.31,1.31,0,0,0-1.07-.8,2.19,2.19,0,0,0-2.11,1.78l-.05.26-.25-.07a2,2,0,0,0-2.4,1.82v.35l-.33-.13a2,2,0,0,0-2.37,3.08l.28.37h-.46a6.15,6.15,0,0,0-3.14.94l-.38.24,0-.45a1.73,1.73,0,0,0-2.76-1.18l-.39.39,0-.55a3.26,3.26,0,0,0-.43-1.79c-.31-.44-1.1-.61-1.4-.21l-.67.91L370,87a2,2,0,0,0-3.31-2l-.19.16-.16-.19c-.38-.45-.75-.9-1.13-1.37l.18.09A2.82,2.82,0,0,0,362.72,85c-.44.85.24,2.25,1.2,2.16l0,.5c-.16,0-.22,0-.27.22a1.27,1.27,0,0,0,0,.58,2.8,2.8,0,0,0,.62,1.16L366,92l-.38.34a2.28,2.28,0,0,0-2.81-.26l-.19.14-.16-.18A1.71,1.71,0,0,0,360,92l-.26.31-.16-.36a1.34,1.34,0,0,0-2.37.4l-.12,1.28-.38-1.22c-.1-.33-.67-.4-1.16-.34a5.47,5.47,0,0,0-1.52.3,1.39,1.39,0,0,0-.94.94c-.12.44,0,1,.39,1.08l-.22.47c-.35-.22-.89.08-1.1.52a1.42,1.42,0,0,0,.21,1.41c.57.94,1.78,1.44,2.42,2.62l.61,1.12-1-.8c-.75-.61-2-.41-3-.39a6.89,6.89,0,0,0-3.1.76l-.26.15-.11-.27c-.14-.37-.77-.43-1.28-.33a9.64,9.64,0,0,0-1.64.49,9.28,9.28,0,0,0-2.9,1.84,3.85,3.85,0,0,0-1,1.31,1.12,1.12,0,0,0,.21,1.35,14.59,14.59,0,0,0,1.45,1l1.52.94,2,1.25.49.3-.55.17a11.71,11.71,0,0,0-5.87,4.16l0,0,0,0c-1,.54-2,.6-2.75,1.17a1.39,1.39,0,0,0-.45,1.11c0,.42.23.76.57.74l.82,0-.66.51a1.6,1.6,0,0,0-.59,1.33,1.42,1.42,0,0,0,.71,1.16l.05,0,0,0a2.68,2.68,0,0,0,1.52,1.06l.08,0,.05.07a2,2,0,0,0,1.73.8l.78-.07-.58.52a7.91,7.91,0,0,0-2.3,3,3.29,3.29,0,0,0,.39,3.3l0,0,0,.07a1.65,1.65,0,0,0,.72,1.05l.21.12-.11.22a1.38,1.38,0,0,0-.14.9l.05.21-.21.08a4.15,4.15,0,0,0-2.22,2.08,3.88,3.88,0,0,0-.16,3,3.8,3.8,0,0,0,1.88,2.21,2.31,2.31,0,0,0,1.37.12.91.91,0,0,0,.8-.79l.06-1,.42.9a3.12,3.12,0,0,0,2.34,1.7l.37,0-.18.32a3,3,0,0,0,1.55,4.09l.44.14-.36.29a3,3,0,0,0-.86,3,2.93,2.93,0,0,0,1.86,2.25l.24.08-.08.24a2.39,2.39,0,0,0,4.52,1.57l.18-.54.26.5a5.29,5.29,0,0,0,1.94,2.41,1.7,1.7,0,0,0,2.33-.62l.23-.68.22.69a3.21,3.21,0,0,0,2.19,2,3.17,3.17,0,0,0,2.77-.38l.39-.28,0,.47a2.11,2.11,0,0,0,4.2.38l0-.2h.2l6.07-.05a15.08,15.08,0,0,0,5.75-.81,10.93,10.93,0,0,0,2.48-1.38,10.15,10.15,0,0,1,1.19-.87,2.1,2.1,0,0,1,1.53-.18,14.61,14.61,0,0,0,2.73.61,9.77,9.77,0,0,0,7.4-2.55,4.88,4.88,0,0,1,1.07-.88,3.06,3.06,0,0,1,1.37-.32,22,22,0,0,0,2.59-.15,16.9,16.9,0,0,0,2.49-.51,5.94,5.94,0,0,0,2.19-1,2.17,2.17,0,0,0,.86-2,1.53,1.53,0,0,0-1.37-1.44h-.17l0-.16a3.25,3.25,0,0,1,.36-2,2,2,0,0,1,1.69-1,1.4,1.4,0,0,1,1.5,1.14,1.31,1.31,0,0,1-1,1.54l.07-.32a2,2,0,0,0,2.21-.13,2.27,2.27,0,0,0,1.05-2,3.14,3.14,0,0,0-3.11-2.71h-.21l.06-.2A7.4,7.4,0,0,0,406,133l-.15-.65.42.52a2.55,2.55,0,0,0,3.45.4l.12-.1.09.13a4.83,4.83,0,0,0,2.22,1.92,2.94,2.94,0,0,0,2.68-.23,2,2,0,0,0,.93-2.22,1.79,1.79,0,0,0-1.77-1.36l-.23,0,.12-.2a2.29,2.29,0,0,0-2-3.3l-.14,0,0-.14a3.64,3.64,0,0,0-2.2-3.85l.08-.15a1.89,1.89,0,0,0,2.67-1l0-.17.09.15a1.84,1.84,0,0,0,1.48.79,4.2,4.2,0,0,0,1.53-.24,4.81,4.81,0,0,0,2-1.33,2.15,2.15,0,0,0,.48-1.34C417.93,120.3,417.88,120.13,417.9,120.13Z" style="fill:#455a64"></path><path d="M362.49,125.11a19.29,19.29,0,0,1,18.92-20.33,19.85,19.85,0,0,1,20.12,18.15c.8,9,1.39,18,1.14,21.3-.77,9.82-6.87,13.27-9.32,14.27a13.31,13.31,0,0,1-2.68.47h0s-.06,0-.06.07l1.5,11.44c.53,7.46-4.1,13.78-11.69,14.37s-13.15-5.47-13.82-12.94Z" style="fill:#ffbe9d"></path><path d="M398.06,130.64a1.58,1.58,0,0,1-1.4,1.7,1.54,1.54,0,0,1-1.76-1.28,1.57,1.57,0,0,1,1.4-1.7A1.54,1.54,0,0,1,398.06,130.64Z" style="fill:#263238"></path><path d="M399.05,125.45c-.18.22-1.46-.56-3.17-.43s-2.89,1.08-3.09.89.07-.47.58-.9a4.44,4.44,0,0,1,2.46-1,4.27,4.27,0,0,1,2.54.59C398.93,125,399.14,125.35,399.05,125.45Z" style="fill:#263238"></path><path d="M381.81,131.57a1.57,1.57,0,0,1-1.4,1.7,1.52,1.52,0,0,1-1.75-1.28,1.58,1.58,0,0,1,1.4-1.7A1.52,1.52,0,0,1,381.81,131.57Z" style="fill:#263238"></path><path d="M382.26,127.07c-.18.22-1.46-.56-3.17-.42s-2.89,1.07-3.09.88.07-.47.58-.9a4.44,4.44,0,0,1,2.46-1,4.27,4.27,0,0,1,2.54.59C382.14,126.62,382.35,127,382.26,127.07Z" style="fill:#263238"></path><path d="M389.5,139.05a12,12,0,0,1,2.74-.71c.44-.08.84-.19.89-.49a2.1,2.1,0,0,0-.4-1.25c-.49-1-1-2.06-1.56-3.17-2.18-4.51-3.8-8.23-3.61-8.32s2.1,3.51,4.28,8l1.51,3.19a2.44,2.44,0,0,1,.37,1.67,1.08,1.08,0,0,1-.67.68,2.76,2.76,0,0,1-.73.16A10.8,10.8,0,0,1,389.5,139.05Z" style="fill:#263238"></path><path d="M390.6,159s-6.56,1-15.22-3.19c.52.26,3,9.91,15.63,6.27Z" style="fill:#eb996e"></path><path d="M389.12,143.16a3.13,3.13,0,0,0-2.86-.91,2.78,2.78,0,0,0-1.86,1.17,1.76,1.76,0,0,0,0,2,2.11,2.11,0,0,0,2.29.38,6.35,6.35,0,0,0,2.08-1.45,1.94,1.94,0,0,0,.45-.54.54.54,0,0,0-.06-.62" style="fill:#eb996e"></path><path d="M384.57,140.61c.27,0,.43,1.78,2.13,2.95s3.65.82,3.69,1.07-.41.39-1.25.48a4.7,4.7,0,0,1-3.07-.79,4,4,0,0,1-1.67-2.49C384.27,141.07,384.44,140.61,384.57,140.61Z" style="fill:#263238"></path><path d="M382.21,121.63c-.14.47-1.86.39-3.85.78s-3.56,1.06-3.87.67c-.13-.18.12-.64.73-1.13a6.74,6.74,0,0,1,2.81-1.22,6.63,6.63,0,0,1,3.07.12C381.86,121.08,382.26,121.41,382.21,121.63Z" style="fill:#263238"></path><path d="M398.18,121c-.27.4-1.49.1-2.9.19s-2.6.46-2.91.08c-.14-.18,0-.58.51-1a4.27,4.27,0,0,1,4.68-.22C398.1,120.46,398.29,120.84,398.18,121Z" style="fill:#263238"></path><path d="M404.15,111.07a11.24,11.24,0,0,0-.24-1.63,5,5,0,0,0-1.45-2c-2.08-2-4.27-4.14-6.88-4.82-1.6-.41-3.26-.26-4.86-.65a29,29,0,0,1-2.91-1.06,23.69,23.69,0,0,0-12.33-.66,19.35,19.35,0,0,0-6.62,2.15,23.48,23.48,0,0,0-5.94,5.4,36.19,36.19,0,0,0-6.62,10.65,17.65,17.65,0,0,0-.95,10.07c.78,3.35,3.15,6.36,6.06,6.82l1-1.38,1.61-2c-.27.82,0,.76.68,1.14a1.39,1.39,0,0,0,1.92-.71c.58.66,1.73-.16,1.48-1.06.68.3,1.46-.64,1.18-1.44.78.23,1.13-1,1.45-1.87a13.42,13.42,0,0,1,.67-1.31,8.46,8.46,0,0,0,.86-4.63c.89-1.2,1-2.94,1.05-4.56l.12-3c.17-.24.33-.49.5-.74a1.61,1.61,0,0,0,1.2,1.46A3.51,3.51,0,0,0,377,115l1.76-.5,1.14.23a4.59,4.59,0,0,0,.57,2.89,2.81,2.81,0,0,0,1.17,1.53.85.85,0,0,0,1.1-1,.94.94,0,0,0,1.43-.34,3.13,3.13,0,0,0,.25-1.88,7.89,7.89,0,0,0-1.79-4.21l3.34,2.65a1.39,1.39,0,0,0,.8.4.83.83,0,0,0,.95.84,2.1,2.1,0,0,0,1.08-.87c.69-.86,1.38-2.28.64-3.12a.67.67,0,0,0,.22-1l3.74,2.39c-.37-.18-.72.4-.6.85a1.81,1.81,0,0,0,.82,1,2.77,2.77,0,0,0-.27,1.71c-.68-.52-1.55.61-1.27,1.51a2,2,0,0,0,2,1.3,1.4,1.4,0,0,0,1.49-1.16c.79.1,1.44-1,1.1-1.87.59.33,1-.72,1-1.48a10.92,10.92,0,0,0-.88-3.88c.08.1.2.14.29.06a.19.19,0,0,0,.06-.15l2.23,4.37a11.3,11.3,0,0,1,1.42,3.94c.06.58.19,1.36.68,1.38a.82.82,0,0,0,.37-.13,7.27,7.27,0,0,0,2.88-4,5.38,5.38,0,0,0,.34-1.74C405,113.46,404.34,112.31,404.15,111.07Z" style="fill:#263238"></path><path d="M364.38,130.85c-.17-.06-6.86-1.57-6.23,5.13s7.23,4.67,7.22,4.48S364.38,130.85,364.38,130.85Z" style="fill:#ffbe9d"></path><path d="M363.09,138.12s-.11.09-.3.2a1.19,1.19,0,0,1-.87.1,2.9,2.9,0,0,1-1.58-2.46,3.79,3.79,0,0,1,.17-1.7,1.34,1.34,0,0,1,.79-1,.6.6,0,0,1,.72.25c.1.18.07.32.11.33s.13-.13.05-.4a.72.72,0,0,0-.3-.39.86.86,0,0,0-.66-.11,1.64,1.64,0,0,0-1.12,1.15,4,4,0,0,0-.23,1.9,3,3,0,0,0,2,2.73,1.25,1.25,0,0,0,1-.28C363.09,138.28,363.11,138.13,363.09,138.12Z" style="fill:#eb996e"></path><path d="M388.64,109.55a1.54,1.54,0,0,0,.38-.9,1.19,1.19,0,0,0-.39-1,1.24,1.24,0,0,0-1.31-.22l-.27.11.1-.28a1.32,1.32,0,0,0-.48-1.45,1.3,1.3,0,0,0-1.66.2l-.24-.19a.53.53,0,0,0,.08-.17.74.74,0,0,0-.16-.62.85.85,0,0,0-.58-.3,1.36,1.36,0,0,0-.66.09,1.9,1.9,0,0,1-.74.23c-.33,0-.49-.26-.66-.35a2.85,2.85,0,0,0-.55-.28,2.82,2.82,0,0,0-1.09-.15,2.89,2.89,0,0,0-1.53.51c-.32.22-.46.39-.48.37a1.55,1.55,0,0,1,.41-.47,2.92,2.92,0,0,1,1.58-.63,3.11,3.11,0,0,1,1.19.13,2.72,2.72,0,0,1,.62.3c.2.12.36.29.53.29a1.82,1.82,0,0,0,.61-.22,1.71,1.71,0,0,1,.81-.12,1.16,1.16,0,0,1,.77.41,1,1,0,0,1,.23.88.9.9,0,0,1-.13.28l-.24-.19a1.54,1.54,0,0,1,2.61,1.54l-.17-.16a1.48,1.48,0,0,1,1.56.3,1.35,1.35,0,0,1,.39,1.15,1.31,1.31,0,0,1-.31.72C388.74,109.51,388.65,109.56,388.64,109.55Z" style="fill:#455a64"></path><path d="M396.29,110.85a2,2,0,0,0,.5-.89,1.52,1.52,0,0,0-.17-1.13,1.55,1.55,0,0,0-1.25-.75h-.21l.13-.18a1.89,1.89,0,0,0,.37-1.68,1.06,1.06,0,0,0-.66-.63.81.81,0,0,0-.88.2l-.77,1,.53-1.14a1.58,1.58,0,0,0,0-1.31,1.45,1.45,0,0,0-1.11-.8,1.56,1.56,0,0,0-1,.19l-.33.2.11-.38c.16-.53-.42-1.08-.94-1.11A2.61,2.61,0,0,0,389,103l-.27.18.06-.32a1.11,1.11,0,0,0-.45-1,2,2,0,0,0-1.07-.37,5.14,5.14,0,0,0-1.92.21,7.65,7.65,0,0,0-1.56.72,1.34,1.34,0,0,1,.35-.3,5.13,5.13,0,0,1,1.16-.58,5.34,5.34,0,0,1,2-.28,2.23,2.23,0,0,1,1.2.4,1.35,1.35,0,0,1,.57,1.29l-.21-.14a2.85,2.85,0,0,1,1.73-.6,1.37,1.37,0,0,1,.92.45,1.07,1.07,0,0,1,.29,1l-.22-.17a1.82,1.82,0,0,1,1.19-.23,1.73,1.73,0,0,1,1.34,1,1.84,1.84,0,0,1,0,1.57l-.25-.16a1.08,1.08,0,0,1,1.2-.27,1.26,1.26,0,0,1,.82.8,2.1,2.1,0,0,1-.44,1.91l-.09-.19a1.76,1.76,0,0,1,1.4.9,1.63,1.63,0,0,1,.14,1.25,1.6,1.6,0,0,1-.41.69A.69.69,0,0,1,396.29,110.85Z" style="fill:#455a64"></path><path d="M412.54,110.86a1.16,1.16,0,0,0-.46-.79,1.49,1.49,0,0,0-1-.28,4.66,4.66,0,0,0-1.4.46l-.16.08v-.18a1.3,1.3,0,0,0-1.17-1.17,3.76,3.76,0,0,0-2.1.52l-.91.43.76-.66a1.08,1.08,0,0,0-.22-1.53,2.43,2.43,0,0,0-1.91-.28h-.09l-.58.11.46-.37a1.15,1.15,0,0,0-.28-1.8,1.73,1.73,0,0,0-1.91.35l-.58.54.36-.71a2.61,2.61,0,0,0-.24-2.63,2.4,2.4,0,0,0-1.87-1,2.8,2.8,0,0,0-1.4.3c-.3.16-.44.29-.45.27s0,0,.09-.1a1.38,1.38,0,0,1,.32-.24,2.55,2.55,0,0,1,1.44-.4,2.58,2.58,0,0,1,2.06,1,2.83,2.83,0,0,1,.3,2.9l-.22-.16a2,2,0,0,1,2.24-.42,1.48,1.48,0,0,1,.74,1,1.26,1.26,0,0,1-.41,1.25l-.12-.26.09,0a2.67,2.67,0,0,1,2.15.35,1.54,1.54,0,0,1,.54.95,1.13,1.13,0,0,1-.32,1l-.16-.24a4,4,0,0,1,2.27-.52,1.53,1.53,0,0,1,1.33,1.44l-.15-.1a4.21,4.21,0,0,1,1.48-.44,1.6,1.6,0,0,1,1.12.35,1.11,1.11,0,0,1,.39.63A.48.48,0,0,1,412.54,110.86Z" style="fill:#455a64"></path><path d="M402.77,96.23a1,1,0,0,1-.39.18,5.45,5.45,0,0,1-1.16.16,3.35,3.35,0,0,0-1.67.4,1.06,1.06,0,0,0-.52.78.78.78,0,0,0,.38.86l-.19.16c-.1-.38-.6-.59-1.05-.8a5.09,5.09,0,0,0-1.47-.49,1.85,1.85,0,0,0-1.42.34,1.22,1.22,0,0,0-.52,1.17l.08.37-.3-.23a3.45,3.45,0,0,0-2-.64,3.84,3.84,0,0,0-1.67.39,4.71,4.71,0,0,0-1.22.94,1.13,1.13,0,0,1,.23-.35,3,3,0,0,1,.91-.74,3.77,3.77,0,0,1,1.74-.48,3.56,3.56,0,0,1,2.22.66l-.23.14a1.51,1.51,0,0,1,.62-1.46,2.12,2.12,0,0,1,1.64-.41,5.14,5.14,0,0,1,1.55.51,6.7,6.7,0,0,1,.7.37,1.08,1.08,0,0,1,.5.64l.07.28-.26-.11a1.06,1.06,0,0,1-.54-1.16,1.37,1.37,0,0,1,.66-.95,3.62,3.62,0,0,1,1.79-.37,5.67,5.67,0,0,0,1.15-.08A4.16,4.16,0,0,1,402.77,96.23Z" style="fill:#455a64"></path><path d="M387.31,91.72a3.37,3.37,0,0,0-.79.18,2,2,0,0,0-.71.54,1.64,1.64,0,0,0-.39,1.06v.16l-.16,0a1,1,0,0,0-1.05.72,3,3,0,0,0,.08,1.67l.14.58-.41-.45-.06-.07a1.27,1.27,0,0,0-1.07-.34,1.4,1.4,0,0,0-.95.51,2.31,2.31,0,0,0-.46,1.84,4.36,4.36,0,0,0,.45,1.27,2.55,2.55,0,0,1,.23.46s-.14-.12-.33-.4a3.73,3.73,0,0,1-.56-1.3,2.44,2.44,0,0,1,.45-2,1.69,1.69,0,0,1,2.46-.2l.08.09-.26.13a3.21,3.21,0,0,1-.07-1.84,1.27,1.27,0,0,1,1.39-.87l-.16.13a1.85,1.85,0,0,1,.49-1.2,1.94,1.94,0,0,1,.82-.54,1.58,1.58,0,0,1,.62-.09C387.24,91.69,387.31,91.71,387.31,91.72Z" style="fill:#455a64"></path><path d="M374.9,102s-.15,0-.4-.06a2.37,2.37,0,0,1-1-.56,2.67,2.67,0,0,1-.82-1.46c-.06-.31-.07-.62-.27-.8s-.57-.3-.83-.63a1.53,1.53,0,0,1,.22-2.08v.23A4.8,4.8,0,0,1,370.39,95a1.73,1.73,0,0,1-.28-.8s.15.28.43.72A5.32,5.32,0,0,0,372,96.43l.16.11-.15.11a1.27,1.27,0,0,0-.15,1.67c.18.24.52.33.8.61a1.54,1.54,0,0,1,.34,1,2.56,2.56,0,0,0,.69,1.35A3.63,3.63,0,0,0,374.9,102Z" style="fill:#455a64"></path><path d="M371.24,105a.57.57,0,0,1-.25.06,3.38,3.38,0,0,1-.72,0,4,4,0,0,1-2.34-1.08l.2,0a2.61,2.61,0,0,1-1.7,1.09,2.75,2.75,0,0,1-1.14,0,1.68,1.68,0,0,1-1-.68,2.89,2.89,0,0,1-.16-.42.61.61,0,0,0-.21-.26,1.92,1.92,0,0,0-.73-.25,2.57,2.57,0,0,1-.8-.25.88.88,0,0,1-.5-.71l.21.11a2.69,2.69,0,0,1-1.84.21,2.92,2.92,0,0,1-1.28-.66,2.6,2.6,0,0,1-.57-.73,1,1,0,0,1-.1-.32,3.7,3.7,0,0,0,.78.92,2.71,2.71,0,0,0,1.22.56,2.47,2.47,0,0,0,1.66-.22l.19-.1v.22a.59.59,0,0,0,.36.46,2,2,0,0,0,.72.21,2.19,2.19,0,0,1,.84.3.94.94,0,0,1,.32.39c.06.16.09.3.14.4a1.41,1.41,0,0,0,.84.52,2.47,2.47,0,0,0,1,0,2.39,2.39,0,0,0,1.53-1l.09-.13.11.11a4.11,4.11,0,0,0,2.18,1.11C370.89,105,371.24,105,371.24,105Z" style="fill:#455a64"></path><path d="M348.18,116.36s0,0-.05-.11a1.85,1.85,0,0,1-.07-.31,3,3,0,0,1,0-1.21,7.39,7.39,0,0,1,.66-1.77,7.73,7.73,0,0,1,.59-1,1.81,1.81,0,0,1,.5-.45.77.77,0,0,1,.74-.06l-.18.14a2,2,0,0,1,3.12-2l-.23.15a1.4,1.4,0,0,1,.47-1.19,1.33,1.33,0,0,1,1.27-.26,1.3,1.3,0,0,1,.63.39l-.26.13a.87.87,0,0,1,.26-.74,1.2,1.2,0,0,1,.66-.34,2.62,2.62,0,0,1,1.32.22l-.18.07a2.22,2.22,0,0,1,1.23-1,3,3,0,0,1,1.48-.12,7.59,7.59,0,0,1,2.38.94l-.15.15a.53.53,0,0,1,0-.53.93.93,0,0,1,.34-.32,1.59,1.59,0,0,1,.8-.19,4.29,4.29,0,0,1,1.95.6c.15.1.23.16.22.17a10.27,10.27,0,0,0-1-.4,5.24,5.24,0,0,0-1.21-.2,1.5,1.5,0,0,0-.69.19c-.22.12-.4.36-.27.57l.2.32-.34-.17a7.88,7.88,0,0,0-2.32-.87,2.85,2.85,0,0,0-1.35.13,1.93,1.93,0,0,0-1.06.89l-.06.12-.12,0a2.47,2.47,0,0,0-1.18-.21c-.35.06-.72.4-.66.74l.09.53-.35-.41a1,1,0,0,0-.49-.3,1,1,0,0,0-1,.2,1.07,1.07,0,0,0-.37.92l0,.33-.28-.19a1.78,1.78,0,0,0-2,0,1.83,1.83,0,0,0-.7,1.72l0,.25-.22-.11c-.34-.16-.71.13-.94.43a6,6,0,0,0-.59,1,7.56,7.56,0,0,0-.71,1.7A4.15,4.15,0,0,0,348.18,116.36Z" style="fill:#455a64"></path><path d="M350.63,125.07a1,1,0,0,1-.17-.18,5.16,5.16,0,0,1-.41-.58,2.16,2.16,0,0,1-.33-1.09,1.6,1.6,0,0,1,.17-.71,1.11,1.11,0,0,1,.62-.56l-.05.16a1.43,1.43,0,0,1-.19-1.49,1.45,1.45,0,0,1,1.51-.8l-.12.23a1.14,1.14,0,0,1-.07-1.35,1.67,1.67,0,0,1,1.24-.72,4.39,4.39,0,0,0,.67-.06c.19,0,.3-.18.39-.39a2.55,2.55,0,0,1,.33-.69,1.38,1.38,0,0,1,.68-.46,7.67,7.67,0,0,1,1.61-.17,1.78,1.78,0,0,0,1.27-.49,6.77,6.77,0,0,0,.37-.62,1.5,1.5,0,0,1,.57-.52,1.61,1.61,0,0,1,1.42,0l-.16.21a1.21,1.21,0,0,1,0-1.41,1.7,1.7,0,0,1,1.09-.66,5.36,5.36,0,0,1,2,.08,6.77,6.77,0,0,1,1.22.37,1.82,1.82,0,0,1,.41.21,15.21,15.21,0,0,0-1.66-.43,5.34,5.34,0,0,0-1.92,0,1.45,1.45,0,0,0-.93.58.93.93,0,0,0,0,1.1l.36.45-.52-.25a1.36,1.36,0,0,0-1.18.06,1.26,1.26,0,0,0-.46.43,5.91,5.91,0,0,1-.38.64,1.58,1.58,0,0,1-.68.46,3.64,3.64,0,0,1-.8.15,7.55,7.55,0,0,0-1.53.16,1,1,0,0,0-.54.36,2.16,2.16,0,0,0-.29.61.89.89,0,0,1-.59.57,5.11,5.11,0,0,1-.72.07,1.38,1.38,0,0,0-1,.57.85.85,0,0,0,0,1l.26.29-.38-.06a1.19,1.19,0,0,0-1.25.64,1.23,1.23,0,0,0,.13,1.25l.1.12-.15.05a1.15,1.15,0,0,0-.68,1.08,2,2,0,0,0,.27,1C350.44,124.78,350.65,125.05,350.63,125.07Z" style="fill:#455a64"></path><path d="M349.69,141.5a.71.71,0,0,1-.31-.07,2.19,2.19,0,0,1-.73-.49,2.15,2.15,0,0,1-.62-1.24,2.31,2.31,0,0,1,.47-1.74v.17a4.23,4.23,0,0,1-.91-1.44,1.72,1.72,0,0,1,0-1,1.26,1.26,0,0,1,.66-.81v.27a1.76,1.76,0,0,1-.89-1.51,2,2,0,0,1,.23-1,1.64,1.64,0,0,1,.73-.7.59.59,0,0,0,.38-.59,2.32,2.32,0,0,1,.13-.9,3,3,0,0,1,1-1.31l1.07-.91a5,5,0,0,1,1.77-1,2.59,2.59,0,0,1,.55-.1c.13,0,.2,0,.2,0a6.53,6.53,0,0,0-.71.19,5.12,5.12,0,0,0-1.67,1.08l-1,.93a2.84,2.84,0,0,0-.93,1.21,2.15,2.15,0,0,0-.1.81.88.88,0,0,1-.13.52,1.19,1.19,0,0,1-.39.33,1.57,1.57,0,0,0-.08,2.7l.27.14-.28.13a1.2,1.2,0,0,0-.49,1.43,3.9,3.9,0,0,0,.84,1.35l.07.08-.07.08a2.15,2.15,0,0,0-.47,1.56,2.05,2.05,0,0,0,.52,1.16A3.15,3.15,0,0,0,349.69,141.5Z" style="fill:#455a64"></path><path d="M375.06,114.79a2.21,2.21,0,0,1-.92-.28,2.54,2.54,0,0,1-.88-.64,1.63,1.63,0,0,1-.4-1.28,1.15,1.15,0,0,1,.09-.33l.08.2a1.48,1.48,0,0,1-.83-.93,1.37,1.37,0,0,1,.11-1c.29-.51.68-.59.68-.56s-.29.18-.49.65a1.16,1.16,0,0,0,0,.83,1.21,1.21,0,0,0,.69.73l.14.06-.06.14a1,1,0,0,0-.07.25,1.44,1.44,0,0,0,.32,1.07,2.7,2.7,0,0,0,.76.62A4.72,4.72,0,0,1,375.06,114.79Z" style="fill:#455a64"></path><path d="M381.82,110.93a1.81,1.81,0,0,0,.12-1.13,1.26,1.26,0,0,0-.8-.88,1.34,1.34,0,0,0-1.42.35l-.18.19-.07-.25a2.38,2.38,0,0,0-.42-.86,1.1,1.1,0,0,0-.8-.48c-.49,0-1,.47-.83.86l-.28.08a2.27,2.27,0,0,0-1-1.43,2.21,2.21,0,0,0-1.33-.39,3.61,3.61,0,0,0-1.25.34s.08-.11.28-.23a2.27,2.27,0,0,1,.95-.29,2.33,2.33,0,0,1,1.49.36,2.46,2.46,0,0,1,1.11,1.58l-.28.09a.86.86,0,0,1,.23-.91,1.18,1.18,0,0,1,.88-.36,1.42,1.42,0,0,1,1,.59,2.78,2.78,0,0,1,.46,1l-.25,0a1.61,1.61,0,0,1,1.73-.39,1.42,1.42,0,0,1,.88,1.07,1.46,1.46,0,0,1-.1.91C381.92,110.86,381.83,110.94,381.82,110.93Z" style="fill:#455a64"></path><path d="M366.09,166.14s-13.34,5.51-16.78,7.73,11.84,50,11.84,50,7.29,19.71,5,28.34c-1.31,4.86-3.6,10-4.66,14.48a8.67,8.67,0,0,0,6.35,10.42c8.22,2,24.09,4.72,37.92.06a96.72,96.72,0,0,0,23.47-11.28,8.64,8.64,0,0,0,2.7-11.33,23.17,23.17,0,0,0-3.35-4.67c-4.43-4.78-7.86-22.91-8.73-27.89a8.52,8.52,0,0,1-.07-2.47c.54-4.69,2.27-21.87-.29-30.31-2-6.75-6.48-14.83-9.06-19.24A8.63,8.63,0,0,0,404.8,166l-13.67-3a13,13,0,0,0-3.57.2l-20.53,3Z" style="fill:#373B6E"></path><g style="opacity:0.30000000000000004"><path d="M366.84,250.47,364,258.63s17.45-5.16,23.26-11.49,11.48-11,14.07-11.19,13.71.23,15.6,1.86,8.31,6.07,8.31,6.07l-2.69-8.8L415.4,229l-21.92-3.12Z"></path></g><path d="M349.31,173.87s-5.74,3.78-6.12,13.82c0,0-.17,3.21-.27,8.09-.29,13.62-.65,40.28.26,46.86,1.64,11.88,11.11,13.67,16.09,13.85S391.67,236,391.67,236L384,223.43l-19.62,4.32s-.08-19,.16-25.41S349.31,173.87,349.31,173.87Z" style="fill:#373B6E"></path><path d="M406.12,166.38s12.27,3.39,16.8,14.33c4,9.6,29.54,53,15.22,60.3-10.35,5.26-22.79-8.23-22.79-8.23Z" style="fill:#373B6E"></path><path d="M419.11,213.79a27.63,27.63,0,0,0,.74-4.8,18.6,18.6,0,0,0-3.2-11,18.89,18.89,0,0,0-2.88-3.25,10.22,10.22,0,0,1-2.49-3.14l0-.06v-.06l1-6a14.05,14.05,0,0,1,.48-2.26,17.18,17.18,0,0,1-.22,2.3c-.21,1.56-.49,3.61-.82,6v-.12c.95,2.16,3.7,3.63,5.38,6.27A18.24,18.24,0,0,1,420.22,209a17,17,0,0,1-.63,3.56A6,6,0,0,1,419.11,213.79Z" style="fill:#263238"></path><path d="M423.13,220.39a16.91,16.91,0,0,1-.94-6.15,11.25,11.25,0,0,0-.32-3.75c-.37-1.2-1.67-2.35-2.9-2.1l-.79,9.21Z" style="fill:#ffbe9d"></path><path d="M419.74,199.39,417,232l-15.73.92.86-32a1.7,1.7,0,0,1,1.5-1.64l14.26-1.69A1.7,1.7,0,0,1,419.74,199.39Z" style="fill:#263238"></path><path d="M403.17,209.75a6.46,6.46,0,0,0,.12-1c.06-.68.13-1.57.22-2.64s.18-2.45.28-3.9c0-.19,0-.39,0-.54a1.06,1.06,0,0,1,.23-.43,1.07,1.07,0,0,1,.41-.28,2.85,2.85,0,0,1,.56-.09l2.46-.31c3.38-.42,6.44-.82,8.65-1.13l2.61-.38a5.41,5.41,0,0,0,1-.18,5.8,5.8,0,0,0-1,.06l-2.63.27c-2.22.25-5.28.61-8.66,1l-2.46.31a2.89,2.89,0,0,0-.62.11,1.49,1.49,0,0,0-.55.37,1.47,1.47,0,0,0-.29.57,4.4,4.4,0,0,0-.05.59c-.08,1.45-.15,2.78-.21,3.91s-.09,2-.12,2.64A4.3,4.3,0,0,0,403.17,209.75Z" style="fill:#455a64"></path><path d="M410.69,201.82a.78.78,0,0,1,1.5,0,.87.87,0,0,1-.33.84.8.8,0,0,1-.9,0A.71.71,0,0,1,410.69,201.82Z" style="fill:#fafafa"></path><path d="M412.27,211.36c.37,0,9.14,3.32,9.14,3.32l4.86,4a8.87,8.87,0,0,1,1.1,6.7c-.77,4.26-2.66,6-7.27,7.69l-9.15-.34-5-3.18a2.87,2.87,0,0,1-1.27-2.93l0-.2-.62-.8a1.56,1.56,0,0,1-.13-1.73h0a1.58,1.58,0,0,1,2.14-.6l5.57,3.13,3.57,0,.39-1.22-5.48-2.06L403,218.92a1.93,1.93,0,0,1-.62-2.73h0a1.94,1.94,0,0,1,2.4-.71l6.52,2.85,6.7,2-1.3-2.41-8.15-4.64S407.66,210.75,412.27,211.36Z" style="fill:#ffbe9d"></path><path d="M411,207.09s-1.84-.78-4.56.75-6.15,3.75-6.15,3.75L395,213.82l.48-1.44s5.48-.1,4.75-4l-3.25.53-3-1.1-4.87,6-1.49,6.82-3.07,3.25,6.07,10.22,8.81-3,7.85-.48,3.55-3.64-.05-4.09,3.38-4.38s.25-2-1.55-2-5.56,4.78-5.56,4.78l-4.27.61s-.81-.58-.26-1,12.44-8.17,12.83-9.63.86-2.44-.44-2.67a7,7,0,0,0-3.3.72S411.94,207.28,411,207.09Z" style="fill:#ffbe9d"></path><path d="M401.45,216.09a60.29,60.29,0,0,0,5.31-3.29c2.88-1.9,5.18-3.5,5.13-3.57a58.62,58.62,0,0,0-5.31,3.29A60.85,60.85,0,0,0,401.45,216.09Z" style="fill:#eb996e"></path><path d="M400.11,226.48a2.52,2.52,0,0,0,.66.13c.44.06,1.07.14,1.85.18a11.73,11.73,0,0,0,2.76-.14,8,8,0,0,0,3.14-1.28,14.14,14.14,0,0,0,4.05-4.57c.41-.67.71-1.22.91-1.61a3.15,3.15,0,0,0,.29-.62,21.65,21.65,0,0,0-1.39,2.11,15.27,15.27,0,0,1-4.05,4.41,8,8,0,0,1-3,1.27,13.22,13.22,0,0,1-2.69.2C401.08,226.52,400.11,226.42,400.11,226.48Z" style="fill:#eb996e"></path><path d="M384.53,223.9a1.81,1.81,0,0,0,.21-.2l.6-.61,2.31-2.4h0v0c.4-1.77.91-4.07,1.53-6.81l0,0,4.88-6-.13,0,3,1.11H397l3.25-.53-.15-.11a3.11,3.11,0,0,1-.13,1.63,2.77,2.77,0,0,1-1.07,1.26,7.21,7.21,0,0,1-3.42,1h-.1l0,.1-.48,1.43-.11.31.3-.13,5.3-2.22h0c1.59-1,3.25-2.05,5-3.06a13,13,0,0,1,2.67-1.33,5,5,0,0,1,2.93-.09h0c.31.06.48.42.53.81a4.3,4.3,0,0,1,0,1.24l-.05.3.28-.12a9.34,9.34,0,0,1,1.8-.62,2.85,2.85,0,0,1,1.83,0c.25.12.31.4.28.71a5.93,5.93,0,0,1-.21,1,3.19,3.19,0,0,1-.32.89,6.65,6.65,0,0,1-.69.72,76.13,76.13,0,0,1-6.51,4.88l-3.27,2.23L403,220.4l-.4.27a.89.89,0,0,0-.38.44.71.71,0,0,0,.13.58,1.49,1.49,0,0,0,.37.38l.05,0h.07l4.26-.62h.06l0-.05a27,27,0,0,1,3.66-3.8c.66-.5,1.4-1.06,2.18-.88a1.11,1.11,0,0,1,.84.66,2.4,2.4,0,0,1,.17,1.13l0-.07-3.37,4.39,0,0v.05c0,1.41,0,2.78.05,4.09l0-.09-3.55,3.66.08,0-7.85.51h0l-6.51,2.25-1.7.6-.43.15-.14.06.15,0,.44-.14,1.71-.56,6.54-2.17h0l7.85-.45h.05l0,0,3.56-3.63,0,0v0c0-1.32,0-2.68,0-4.09l0,.08,3.38-4.37,0,0v0a2.59,2.59,0,0,0-.19-1.29,1.59,1.59,0,0,0-.41-.55,1.55,1.55,0,0,0-.63-.28,2,2,0,0,0-1.33.21,6.77,6.77,0,0,0-1.1.73,26.52,26.52,0,0,0-3.71,3.84l.1-.06-4.27.62.12,0c-.22-.17-.44-.44-.38-.62s.41-.36.65-.54l1.62-1.09,3.27-2.23a76,76,0,0,0,6.55-4.91,5.27,5.27,0,0,0,.73-.76,1.25,1.25,0,0,0,.24-.51l.14-.49a5.6,5.6,0,0,0,.22-1,1.4,1.4,0,0,0,0-.57.84.84,0,0,0-.4-.45,3.06,3.06,0,0,0-2.06-.09,9.82,9.82,0,0,0-1.87.64l.23.18a4.64,4.64,0,0,0,0-1.34,1.78,1.78,0,0,0-.22-.66.89.89,0,0,0-.58-.43h0a5.12,5.12,0,0,0-3.15.09,13.21,13.21,0,0,0-2.74,1.36c-1.73,1-3.38,2.05-5,3.07h0l-5.29,2.23.19.18.49-1.43-.14.1a7.43,7.43,0,0,0,3.57-1,3.06,3.06,0,0,0,1.18-1.39,3.36,3.36,0,0,0,.13-1.77l0-.13-.13,0-3.25.54H397l-3-1.09-.08,0-.05.07-4.85,6v0c-.59,2.75-1.08,5.05-1.46,6.83l0,0L385.3,223l-.58.64C384.59,223.82,384.53,223.9,384.53,223.9Z" style="fill:#eb996e"></path><path d="M366.85,227.3c0,.1-.8,0-2,0a11.06,11.06,0,0,0-8.2,4.34,19.07,19.07,0,0,1-1.16,1.66,4.16,4.16,0,0,1,.8-1.91,10,10,0,0,1,8.56-4.53A4.31,4.31,0,0,1,366.85,227.3Z" style="fill:#263238"></path><path d="M365.06,201.84c.17,0,.19,5.66,0,12.62s-.42,12.61-.59,12.61-.18-5.65,0-12.62S364.89,201.84,365.06,201.84Z" style="fill:#263238"></path><path d="M343,190.36a1.59,1.59,0,0,1,0,.38c0,.28,0,.65,0,1.11,0,1-.05,2.45-.08,4.28-.06,3.75-.13,9.12-.22,15.73s-.08,14.55.14,23.32c0,1.1.07,2.21.11,3.33l.06,1.69c.05.56.11,1.12.17,1.69a21.92,21.92,0,0,0,.62,3.37,18,18,0,0,0,1.33,3.21,14.06,14.06,0,0,0,4.81,5.16,16.42,16.42,0,0,0,6.89,2.41l.43,0h0a10.64,10.64,0,0,0,5.33-.81,37.47,37.47,0,0,0,4.87-2.43c3.15-1.78,6.15-3.63,9-5.52a145.38,145.38,0,0,0,15-11.47l-.05.32-7.67-12.64.21.09c-5.4,1.12-9.67,2.13-12.61,2.75l-3.37.72-.87.17-.3,0a1.08,1.08,0,0,1,.28-.1L368,227l3.35-.82c2.93-.68,7.18-1.75,12.58-2.93l.14,0,.07.12,7.76,12.58.11.19-.16.14a142.25,142.25,0,0,1-15,11.58q-4.26,2.87-9,5.56a37.45,37.45,0,0,1-5,2.47,11.23,11.23,0,0,1-5.64.85h0l-.48,0a16.93,16.93,0,0,1-7.15-2.52,14.59,14.59,0,0,1-5-5.38,17.43,17.43,0,0,1-1.37-3.33,22.46,22.46,0,0,1-.64-3.47c-.05-.58-.11-1.16-.16-1.73l-.06-1.7c0-1.12-.07-2.24-.1-3.33-.19-8.79-.11-16.71,0-23.35s.27-12,.42-15.73c.08-1.82.15-3.26.19-4.28,0-.46.06-.82.08-1.11A2,2,0,0,1,343,190.36Z" style="fill:#263238"></path><path d="M433.65,242.19c0,.05-.3.07-.84.08a13.16,13.16,0,0,1-2.27-.17,18.94,18.94,0,0,1-3.3-.79,23.66,23.66,0,0,1-3.78-1.73,33.08,33.08,0,0,1-6-4.53,13.24,13.24,0,0,1-2.12-2.27,19.74,19.74,0,0,1,2.41,1.95,41.76,41.76,0,0,0,6,4.31,26,26,0,0,0,3.66,1.73,21.92,21.92,0,0,0,3.18.9C432.47,242.05,433.65,242.09,433.65,242.19Z" style="fill:#263238"></path><path d="M437.39,221.8c-.11.16-2.27-1.68-5.52-2.61s-6.05-.6-6.07-.8,2.83-.81,6.24.21S437.52,221.72,437.39,221.8Z" style="fill:#263238"></path><path d="M432.53,216.32c0,.18-1.67.1-3.61.57s-3.39,1.28-3.49,1.12a6,6,0,0,1,3.35-1.72C430.84,215.79,432.57,216.16,432.53,216.32Z" style="fill:#263238"></path><g style="opacity:0.30000000000000004"><path d="M364.28,226.75a7.57,7.57,0,0,0-10.48,1.43,3.8,3.8,0,0,0-.88,2.07,1.88,1.88,0,0,0,1.07,1.86c1,.39,2.13-.28,2.9-1a14.16,14.16,0,0,1,7.61-4"></path></g><g style="opacity:0.30000000000000004"><path d="M425.78,218.41c3.17-.32,6.21,1.23,9.36,1.78a2.23,2.23,0,0,0,1.67-.18,1.4,1.4,0,0,0,.55-1.19,2.22,2.22,0,0,0-.5-1.25A5.14,5.14,0,0,0,433,216a16,16,0,0,0-4.37.37,4.57,4.57,0,0,0-3.07,1.8"></path></g><path d="M365.54,170.87l-.7-8.6a43.92,43.92,0,0,0,14.82,2.22c8-.43,12.58-2.71,12.58-2.71l2.5,12.07-7.42,11.24-6.53,3-11.47-1.79Z" style="fill:#373B6E"></path><path d="M366.43,191.38c-.08,0-.34-1.44-1-3.72a22.43,22.43,0,0,0-3.92-8.22,11.34,11.34,0,0,0-11.45-4.36,2.71,2.71,0,0,1,1-.35,8.25,8.25,0,0,1,2.84-.17,12.33,12.33,0,0,1,8,4.55,21,21,0,0,1,3.88,8.46c.27,1.16.43,2.12.52,2.78A3.49,3.49,0,0,1,366.43,191.38Z" style="fill:#263238"></path><path d="M392.24,161.78a3.75,3.75,0,0,1,.29,1,7.15,7.15,0,0,1,.17,1.23,2.54,2.54,0,0,1-.43,1.64A7.7,7.7,0,0,1,391,167.2a7.86,7.86,0,0,1-2,1.23,24.13,24.13,0,0,1-5,1.51,26.1,26.1,0,0,1-9.42.14,19.53,19.53,0,0,1-2.78-.66,4.25,4.25,0,0,1-1-.38c0-.09,1.45.37,3.82.68a28.75,28.75,0,0,0,9.26-.29,24.9,24.9,0,0,0,4.89-1.44,7.78,7.78,0,0,0,1.88-1.11,8.36,8.36,0,0,0,1.27-1.43,2.32,2.32,0,0,0,.44-1.42,9.73,9.73,0,0,0-.08-1.2A4.55,4.55,0,0,1,392.24,161.78Z" style="fill:#263238"></path><path d="M421.17,258.58s-.13.11-.4.26l-1.18.67c-.51.29-1.15.63-1.9,1s-1.61.8-2.58,1.21a72.77,72.77,0,0,1-6.92,2.63,72.71,72.71,0,0,1-17.77,3.39,72.52,72.52,0,0,1-7.4.1c-1.06,0-2-.12-2.84-.18s-1.55-.13-2.13-.21l-1.35-.19a1.31,1.31,0,0,1-.46-.1h.47l1.35.09c.59,0,1.31.1,2.14.12s1.78.1,2.83.1c2.09.05,4.59,0,7.35-.21a87.49,87.49,0,0,0,8.93-1.17,86.3,86.3,0,0,0,8.74-2.2c2.64-.83,5-1.69,6.92-2.51,1-.38,1.83-.79,2.59-1.13s1.41-.64,1.94-.9l1.22-.58C421,258.62,421.16,258.56,421.17,258.58Z" style="fill:#263238"></path></g></svg>